<?xml version="1.0" encoding="UTF-8"?>
<svg width="144px" height="40px" viewBox="0 0 144 40" version="1.1" xmlns="http://www.w3.org/2000/svg" xmlns:xlink="http://www.w3.org/1999/xlink">
    <!-- Generator: Sketch 49.1 (51147) - http://www.bohemiancoding.com/sketch -->
    <title>element/logo/white</title>
    <desc>Created with Sketch.</desc>
    <defs></defs>
    <g id="Symbols" stroke="none" stroke-width="1" fill="none" fill-rule="evenodd">
        <g id="section/footer" transform="translate(-96.000000, -433.000000)" fill="#FFFFFF">
            <g id="footer">
                <g id="Group-2" transform="translate(96.000000, 431.000000)">
                    <g id="element/logo/white">
                        <g id="Group" transform="translate(0.000000, 2.000000)">
                            <g>
                                <g transform="translate(102.000000, 1.000000)" fill-rule="nonzero" id="Shape" opacity="0.48">
                                    <path d="M40.5,9.9 C35.1,7.1 29.3,4.8 23.2,3.3 C17.5,1.9 11.7,1.1 6,0.9 C5.8,0.9 5.7,1 5.7,1.1 C4.9,4.3 4,7.8 3.1,11.2 C2.2,14.5 1.4,17.9 0.5,21 C0.5,21.1 0.5,21.2 0.6,21.3 C0.7,21.4 0.7,21.4 0.9,21.4 C6.8,21.1 12.8,21.7 18.7,23.2 C24.5,24.7 30.1,27.1 35.1,30.3 C35.2,30.3 35.2,30.3 35.3,30.3 C35.3,30.3 35.4,30.3 35.4,30.3 C35.5,30.3 35.6,30.2 35.6,30.1 C36.6,26.3 37.6,22.3 38.7,18.3 C39.4,15.5 40.1,12.8 40.8,10.2 C40.7,10.1 40.6,10 40.5,9.9 Z M40,10.3 C39.3,12.8 38.6,15.5 37.9,18.2 C36.9,22.1 35.9,26 34.9,29.6 C29.9,26.5 24.4,24.1 18.6,22.6 C13.7,21.3 8.6,20.7 3.6,20.7 C2.7,20.7 1.9,20.7 1,20.8 C1.6,18.4 2.3,15.9 2.9,13.3 L3.4,11.3 C4.3,8 5.1,4.6 6,1.5 C11.6,1.7 17.3,2.5 22.8,3.9 C29,5.4 34.7,7.6 40,10.3 Z"></path>
                                    <path d="M40.3,9.9 L20.7,15.3 L6.1,1 C6,0.9 6,0.9 5.9,0.9 C5.9,0.9 5.9,0.9 5.9,0.9 C5.8,0.9 5.7,0.9 5.7,1 C5.6,1.1 5.6,1.1 5.6,1.2 C5.6,1.3 5.6,1.4 5.7,1.4 L20.3,15.8 C20.4,15.9 20.4,15.9 20.5,15.9 C20.5,15.9 20.5,15.9 20.6,15.9 L40.4,10.4 C40.6,10.4 40.7,10.2 40.6,10 C40.6,9.9 40.4,9.8 40.3,9.9 Z"></path>
                                </g>
                                <path d="M106.6,10.6 C106.5,11.1 106,11.3 105.5,11.2 C105,11.1 104.8,10.6 104.9,10.1 C105,9.6 105.5,9.4 106,9.5 C106.5,9.6 106.7,10.1 106.6,10.6 Z" id="Shape"></path>
                                <path d="M140.1,23.3 C140,23.8 139.5,24 139,23.9 C138.5,23.8 138.3,23.3 138.4,22.8 C138.5,22.3 139,22.1 139.5,22.2 C139.9,22.3 140.2,22.8 140.1,23.3 Z" id="Shape"></path>
                                <path d="M128.7,5.6 C128.6,6.1 128,6.5 127.4,6.3 C126.9,6.2 126.5,5.6 126.7,5 C126.8,4.5 127.4,4.1 128,4.3 C128.5,4.4 128.9,5 128.7,5.6 Z" id="Shape"></path>
                                <circle id="Oval" transform="translate(114.175620, 8.171420) rotate(-38.866512) translate(-114.175620, -8.171420) " cx="114.17562" cy="8.17142" r="1"></circle>
                                <path d="M134,13.8 C133.9,14.1 133.6,14.3 133.3,14.2 C133,14.1 132.8,13.8 132.9,13.5 C133,13.2 133.3,13 133.6,13.1 C133.9,13.1 134.1,13.4 134,13.8 Z" id="Shape"></path>
                                <path d="M104.1,22.5 C103.9,23.3 103.1,23.8 102.3,23.6 C101.5,23.4 101,22.6 101.2,21.8 C101.4,21 102.2,20.5 103,20.7 C103.9,20.9 104.4,21.7 104.1,22.5 Z" id="Shape"></path>
                                <path d="M123.6,16.8 C123.5,17.4 122.9,17.7 122.3,17.6 C121.7,17.5 121.4,16.9 121.5,16.3 C121.6,15.7 122.2,15.4 122.8,15.5 C123.4,15.6 123.8,16.2 123.6,16.8 Z" id="Shape"></path>
                                <path d="M138.5,31.5 C138.3,32.3 137.5,32.7 136.7,32.5 C135.9,32.3 135.5,31.5 135.7,30.7 C135.9,29.9 136.7,29.5 137.5,29.7 C138.3,29.9 138.7,30.7 138.5,31.5 Z" id="Shape"></path>
                                <path d="M109.3,2.6 C109.1,3.4 108.3,3.8 107.5,3.6 C106.7,3.4 106.3,2.6 106.5,1.8 C106.7,1 107.5,0.6 108.3,0.8 C109.1,1 109.5,1.8 109.3,2.6 Z" id="Shape"></path>
                                <rect id="Rectangle-path" x="124.9" y="21.5" width="2.8" height="17.4"></rect>
                                <path d="M118.9,24.1 C118.9,23.6 119.1,23.2 119.4,22.9 C119.7,22.5 120.1,22.4 120.7,22.4 C121.2,22.4 121.6,22.6 122,22.9 C122.3,23.2 122.5,23.7 122.5,24.2 C122.5,24.7 122.3,25.1 122,25.5 C121.7,25.9 121.2,26 120.7,26 C120.2,26 119.8,25.8 119.4,25.5 C119,25.2 118.9,24.6 118.9,24.1 Z" id="Shape"></path>
                                <rect id="Rectangle-path" x="119.3" y="27.9" width="2.8" height="11"></rect>
                                <path d="M116.4,30.5 C116.3,29.9 116,29.5 115.6,29 C115.2,28.6 114.7,28.2 114.1,27.9 C113.5,27.6 112.7,27.5 111.7,27.5 C110.9,27.5 110,27.6 109.2,27.9 C108.4,28.2 107.7,28.6 107,29.2 L108.4,30.9 C108.8,30.5 109.2,30.2 109.7,30 C110.2,29.8 110.8,29.6 111.4,29.6 C112.1,29.6 112.7,29.8 113.2,30.1 C113.7,30.4 113.9,30.9 113.9,31.6 L113.9,32 C113,32 112.2,32 111.3,32.1 C110.4,32.2 109.6,32.4 108.9,32.6 C108.2,32.9 107.6,33.2 107.1,33.7 C106.6,34.2 106.4,34.8 106.4,35.7 C106.4,36.3 106.5,36.9 106.8,37.3 C107.1,37.7 107.4,38.1 107.8,38.4 C108.2,38.7 108.6,38.9 109.1,39 C109.6,39.1 110,39.2 110.5,39.2 C111.3,39.2 112,39 112.6,38.7 C113.2,38.4 113.7,38 113.9,37.5 L114,37.5 L114,38.9 L116.6,38.9 L116.6,32.2 C116.6,31.7 116.6,31.1 116.4,30.5 Z M114,34.3 C114,35.2 113.8,35.9 113.3,36.4 C112.8,36.9 112.1,37.2 111.1,37.2 C110.9,37.2 110.6,37.2 110.4,37.1 C110.2,37.1 110,37 109.8,36.9 C109.6,36.8 109.5,36.7 109.4,36.5 C109.3,36.3 109.2,36.1 109.2,35.8 C109.2,35.4 109.3,35.1 109.6,34.8 C109.9,34.6 110.2,34.4 110.6,34.2 C111,34.1 111.5,34 112,33.9 C112.5,33.9 113,33.8 113.4,33.8 L114,33.8 L114,34.3 Z" id="Shape"></path>
                                <path d="M100.5,27.6 C101.2,27.6 101.8,27.7 102.3,28 C102.8,28.3 103.2,28.6 103.6,29 C103.9,29.4 104.2,29.9 104.3,30.4 C104.5,30.9 104.5,31.5 104.5,32.1 L104.5,39 L101.7,39 L101.7,32.9 C101.7,32.6 101.7,32.2 101.6,31.9 C101.6,31.5 101.5,31.2 101.3,30.9 C101.1,30.6 100.9,30.4 100.7,30.2 C100.4,30 100.1,29.9 99.6,29.9 C99.2,29.9 98.8,30 98.5,30.2 C98.2,30.4 97.9,30.6 97.7,30.9 C97.5,31.2 97.4,31.5 97.3,31.9 C97.2,32.3 97.2,32.6 97.2,33 L97.2,39 L94.4,39 L94.4,32.3 C94.4,31.6 94.2,31 93.9,30.6 C93.6,30.2 93.1,29.9 92.3,29.9 C91.9,29.9 91.5,30 91.2,30.2 C90.9,30.4 90.6,30.6 90.5,30.9 C90.3,31.2 90.2,31.5 90.1,31.9 C90,32.3 90,32.6 90,33 L90,39.1 L87.2,39.1 L87.2,28.1 L89.8,28.1 L89.8,29.9 C90,29.6 90.1,29.4 90.3,29.1 C90.5,28.9 90.8,28.6 91,28.4 C91.3,28.2 91.6,28 92,27.9 C92.4,27.8 92.8,27.7 93.2,27.7 C94.1,27.7 94.8,27.9 95.3,28.3 C95.9,28.7 96.3,29.2 96.6,29.8 C97,29.1 97.5,28.6 98.1,28.2 C99,27.7 99.7,27.6 100.5,27.6 Z" id="Shape"></path>
                                <path d="M84.5,30.5 C84.4,29.9 84.1,29.5 83.7,29 C83.3,28.6 82.8,28.2 82.2,27.9 C81.6,27.6 80.8,27.5 79.8,27.5 C79,27.5 78.1,27.6 77.3,27.9 C76.5,28.2 75.8,28.6 75.1,29.2 L76.5,30.9 C76.9,30.5 77.3,30.2 77.8,30 C78.3,29.8 78.9,29.6 79.5,29.6 C80.2,29.6 80.8,29.8 81.3,30.1 C81.8,30.4 82,30.9 82,31.6 L82,32 C81.1,32 80.3,32 79.4,32.1 C78.5,32.2 77.7,32.4 77,32.6 C76.3,32.9 75.7,33.2 75.2,33.7 C74.7,34.2 74.5,34.8 74.5,35.7 C74.5,36.3 74.6,36.9 74.9,37.3 C75.2,37.7 75.5,38.1 75.9,38.4 C76.3,38.7 76.7,38.9 77.2,39 C77.7,39.1 78.1,39.2 78.6,39.2 C79.4,39.2 80.1,39 80.7,38.7 C81.3,38.4 81.8,38 82,37.5 L82.1,37.5 L82.1,38.9 L84.7,38.9 L84.7,32.2 C84.7,31.7 84.6,31.1 84.5,30.5 Z M82.1,34.3 C82.1,35.2 81.9,35.9 81.4,36.4 C80.9,36.9 80.2,37.2 79.2,37.2 C79,37.2 78.7,37.2 78.5,37.1 C78.3,37.1 78.1,37 77.9,36.9 C77.7,36.8 77.6,36.7 77.5,36.5 C77.4,36.3 77.3,36.1 77.3,35.8 C77.3,35.4 77.4,35.1 77.7,34.8 C78,34.5 78.3,34.4 78.7,34.2 C79.1,34.1 79.6,34 80.1,33.9 C80.6,33.9 81.1,33.8 81.5,33.8 L82.1,33.8 L82.1,34.3 Z" id="Shape"></path>
                                <path d="M72.8,31.1 C72.5,30.4 72.2,29.8 71.7,29.3 C71.2,28.8 70.7,28.4 70,28.1 C69.3,27.8 68.6,27.7 67.8,27.7 C67.3,27.7 66.8,27.8 66.4,27.9 C66,28 65.7,28.2 65.4,28.3 C65.1,28.5 64.8,28.7 64.6,28.9 C64.4,29.1 64.2,29.3 64.1,29.5 L64,29.5 L64,21.8 L61.2,21.8 L61.2,39.2 L63.8,39.2 L63.8,37.5 C64.2,38.1 64.7,38.6 65.4,39 C66.1,39.3 66.8,39.5 67.6,39.5 C68.4,39.5 69.2,39.3 69.9,39 C70.6,38.7 71.1,38.3 71.6,37.7 C72.1,37.2 72.4,36.6 72.7,35.8 C73,35.1 73.1,34.3 73.1,33.5 C73.2,32.5 73.1,31.8 72.8,31.1 Z M70.2,34.6 C70.1,35 69.9,35.4 69.6,35.7 C69.3,36 69,36.3 68.6,36.5 C68.2,36.7 67.7,36.8 67.2,36.8 C66.7,36.8 66.2,36.7 65.8,36.5 C65.4,36.3 65.1,36 64.8,35.7 C64.5,35.4 64.3,35 64.2,34.6 C64.1,34.2 64,33.8 64,33.3 C64,32.9 64.1,32.4 64.2,32 C64.3,31.6 64.6,31.2 64.8,30.9 C65.1,30.6 65.4,30.3 65.8,30.1 C66.2,29.9 66.6,29.8 67.2,29.8 C67.7,29.8 68.2,29.9 68.6,30.1 C69,30.3 69.3,30.6 69.6,30.9 C69.9,31.2 70.1,31.6 70.2,32 C70.3,32.4 70.4,32.8 70.4,33.3 C70.4,33.8 70.3,34.2 70.2,34.6 Z" id="Shape"></path>
                                <path d="M54.6,27.6 C55.3,27.6 55.9,27.7 56.4,28 C56.9,28.3 57.3,28.6 57.7,29 C58,29.4 58.3,29.9 58.4,30.4 C58.6,30.9 58.6,31.5 58.6,32.1 L58.6,39 L55.8,39 L55.8,32.9 C55.8,32.6 55.8,32.2 55.7,31.9 C55.7,31.5 55.6,31.2 55.4,30.9 C55.2,30.6 55,30.4 54.8,30.2 C54.5,30 54.2,29.9 53.7,29.9 C53.3,29.9 52.9,30 52.6,30.2 C52.3,30.4 52,30.6 51.8,30.9 C51.6,31.2 51.5,31.5 51.4,31.9 C51.3,32.3 51.3,32.6 51.3,33 L51.3,39 L48.5,39 L48.5,32.3 C48.5,31.6 48.3,31 48,30.6 C47.7,30.2 47.2,29.9 46.4,29.9 C46,29.9 45.6,30 45.3,30.2 C45,30.4 44.7,30.6 44.6,30.9 C44.4,31.2 44.3,31.5 44.2,31.9 C44.1,32.3 44.1,32.6 44.1,33 L44.1,39.1 L41.3,39.1 L41.3,28.1 L44,28.1 L44,29.9 C44.2,29.6 44.3,29.4 44.5,29.1 C44.7,28.9 45,28.6 45.2,28.4 C45.5,28.2 45.8,28 46.2,27.9 C46.6,27.8 47,27.7 47.4,27.7 C48.3,27.7 49,27.9 49.5,28.3 C50,28.7 50.5,29.2 50.8,29.8 C51.2,29.1 51.7,28.6 52.3,28.2 C53,27.7 53.8,27.6 54.6,27.6 Z" id="Shape"></path>
                                <path d="M38.7,38.9 L36.1,38.9 L36.1,37.1 C35.9,37.7 35.4,38.1 34.8,38.6 C34.2,39 33.5,39.2 32.7,39.2 C32,39.2 31.4,39.1 30.9,38.8 C30.4,38.5 30,38.2 29.6,37.8 C29.3,37.4 29,36.9 28.9,36.4 C28.7,35.9 28.7,35.3 28.7,34.7 L28.7,27.8 L31.5,27.8 L31.5,34 C31.5,34.3 31.5,34.7 31.6,35 C31.6,35.4 31.7,35.7 31.9,36 C32.1,36.3 32.3,36.5 32.5,36.7 C32.8,36.9 33.1,37 33.6,37 C34,37 34.4,36.9 34.7,36.7 C35,36.5 35.3,36.3 35.5,36 C35.7,35.7 35.9,35.4 36,35 C36.1,34.6 36.2,34.3 36.2,33.9 L36.2,27.8 L39,27.8 L39,38.9 L38.7,38.9 Z" id="Shape"></path>
                                <path d="M25.5,30.9 C25.3,30.6 25,30.3 24.5,30.1 C24.1,29.9 23.6,29.8 23.2,29.8 C22.7,29.8 22.3,29.9 21.9,30.1 C21.5,30.3 21.2,30.6 20.9,30.9 C20.6,31.2 20.5,31.6 20.3,32 C20.2,32.4 20.1,32.8 20.1,33.3 C20.1,33.7 20.2,34.2 20.3,34.6 C20.4,35 20.6,35.4 20.9,35.7 C21.2,36 21.5,36.3 21.9,36.5 C22.3,36.7 22.7,36.8 23.3,36.8 C23.7,36.8 24.2,36.7 24.6,36.5 C25,36.3 25.4,36.1 25.6,35.8 L27.3,37.5 C26.8,38 26.3,38.4 25.5,38.6 C24.8,38.9 24,39 23.2,39 C22.4,39 21.6,38.9 20.9,38.6 C20.2,38.3 19.5,38 19,37.5 C18.5,37 18,36.4 17.7,35.7 C17.4,35 17.2,34.2 17.2,33.2 C17.2,32.3 17.4,31.5 17.7,30.8 C18,30.1 18.4,29.5 19,29 C19.5,28.5 20.2,28.1 20.9,27.8 C21.6,27.5 22.4,27.4 23.2,27.4 C24,27.4 24.8,27.6 25.6,27.9 C26.4,28.2 27,28.6 27.4,29.2 L25.5,30.9 Z" id="Shape"></path>
                                <path d="M10.1,22.6 L7.6,22.6 L0.5,38.9 L3.7,38.9 L5.2,35.2 L12.2,35.2 L13.7,38.9 L17,38.9 L10.1,22.6 Z M6.2,32.7 L8.7,26.1 L11.2,32.7 L6.2,32.7 Z" id="Shape"></path>
                            </g>
                            <path d="M143.8,11.6 C143.6,12.4 142.8,12.9 142,12.7 C141.2,12.5 140.7,11.7 140.9,10.9 C141.1,10.1 141.9,9.6 142.7,9.8 C143.5,10 144,10.8 143.8,11.6 Z" id="Shape"></path>
                        </g>
                    </g>
                </g>
            </g>
        </g>
    </g>
</svg>