<?xml version="1.0" encoding="UTF-8"?>
<svg width="24px" height="24px" viewBox="0 0 24 24" version="1.1" xmlns="http://www.w3.org/2000/svg" xmlns:xlink="http://www.w3.org/1999/xlink">
    <!-- Generator: Sketch 49.1 (51147) - http://www.bohemiancoding.com/sketch -->
    <title>icon/24/email copy 3</title>
    <desc>Created with Sketch.</desc>
    <defs></defs>
    <g id="icon/24/email-copy-3" stroke="none" stroke-width="1" fill="none" fill-rule="evenodd">
        <g id="Flag" transform="translate(5.000000, 4.000000)" fill="#002851" fill-rule="nonzero">
            <path d="M13.0300279,9.98657959 C9.55714884,10.5500735 6.08426977,9.16421224 2.61142326,9.72770612 C2.45133021,9.76637695 2.28241425,9.72789845 2.15468584,9.62366283 C2.02695743,9.51942721 1.95505277,9.36137867 1.96026047,9.1963102 C1.96929482,8.81369371 2.23844837,8.48706842 2.61142326,8.40610612 L2.61142326,1.79764898 C2.45133432,1.83633222 2.28241653,1.797863 2.15468585,1.69363193 C2.02695516,1.58940087 1.95504972,1.43135298 1.96026047,1.26628571 C1.96930656,0.883673614 2.23845489,0.557054666 2.61142326,0.476081633 C6.08430233,-0.0874122449 9.5571814,1.29848163 13.0300279,0.734987755 C13.190121,0.696316924 13.3590369,0.734795429 13.4867653,0.839031048 C13.6144937,0.943266667 13.6863984,1.1013152 13.6811907,1.26638367 L13.6811907,9.1963102 C13.6721743,9.57894694 13.4030194,9.90560078 13.0300279,9.98657959 Z M0.00677209302,15.0272 L0.00677209302,0.659853061 C0.00677209302,0.299177306 0.298307605,0.00679183673 0.657934884,0.00679183673 C1.01756216,0.00679183673 1.30909767,0.299177306 1.30909767,0.659853061 L1.30909767,15.0272 C1.30909767,15.3878758 1.01756216,15.6802612 0.657934884,15.6802612 C0.298307605,15.6802612 0.00677209302,15.3878758 0.00677209302,15.0272 Z" id="Shape"></path>
        </g>
    </g>
</svg>