<?xml version="1.0" encoding="UTF-8"?>
<svg width="32px" height="32px" viewBox="0 0 32 32" version="1.1" xmlns="http://www.w3.org/2000/svg" xmlns:xlink="http://www.w3.org/1999/xlink">
    <!-- Generator: Sketch 49 (51002) - http://www.bohemiancoding.com/sketch -->
    <title>element/social/twitter</title>
    <desc>Created with Sketch.</desc>
    <defs></defs>
    <g id="element/social/twitter" stroke="none" stroke-width="1" fill="none" fill-rule="evenodd">
        <g id="twitter" fill="#FFFFFF" fill-rule="nonzero">
            <path d="M28.5,8.3125 C27.625,8.75 26.5625,9 25.5625,9.125 C26.625,8.5 27.4375,7.4375 27.875,6.25 C26.9375,6.875 25.75,7.25 24.625,7.5 C23.180987,5.94945264 20.9316877,5.44736403 18.9653752,6.23665848 C16.9990627,7.02595294 15.7211792,8.94388253 15.75,11.0625 L15.8125,12.1875 C11.5625,12 7.75,10 5.25,6.875 C3.88010342,9.21461422 4.59653981,12.218136 6.875,13.6875 C6.0625,13.6875 5.25,13.4375 4.5625,13.125 C4.5625,15.5625 6.3125,17.625 8.625,18.125 L7.3125,18.3125 L6.3125,18.25 C6.9375,20.3125 8.875,21.8125 11.125,21.8125 C9.3125,23.1875 7.125,24 4.75,24 L3.5,23.9375 C7.98586692,26.8868479 13.7306242,27.1288702 18.4486629,24.5672757 C23.1667016,22.0056813 26.0926921,17.0559955 26.0625,11.6875 L25.9375,10.9375 C26.9375,10.25 27.8125,9.375 28.5,8.3125 Z" id="Shape"></path>
        </g>
    </g>
</svg>