<?xml version="1.0" encoding="UTF-8"?>
<svg width="32px" height="32px" viewBox="0 0 32 32" version="1.1" xmlns="http://www.w3.org/2000/svg" xmlns:xlink="http://www.w3.org/1999/xlink">
    <!-- Generator: Sketch 49 (51002) - http://www.bohemiancoding.com/sketch -->
    <title>element/social/twitter copy 5</title>
    <desc>Created with Sketch.</desc>
    <defs></defs>
    <g id="element/social/twitter-copy-5" stroke="none" stroke-width="1" fill="none" fill-rule="evenodd">
        <g id="linkedin" fill="#FFFFFF" fill-rule="nonzero">
            <path d="M3.8125,11.125 L9.1875,11.125 L9.1875,27.25 L3.8125,27.25 L3.8125,11.125 Z M6.5625,3.375 C4.6875,3.375 3.5,4.625 3.5,6.1875 C3.5,7.75 4.6875,8.9375 6.4375,8.9375 L6.5,8.9375 C8.375,8.9375 9.5,7.75 9.5,6.1875 C9.5,4.625 8.375,3.375 6.5625,3.375 Z M22.3125,10.8125 C19.5,10.8125 18.1875,12.375 17.5,13.4375 L17.5,11.1875 L12.125,11.1875 L12.125,27.3125 L17.5,27.3125 L17.5,18.3125 C17.5,17.8125 17.5625,17.3125 17.6875,17 C18.0625,16 18.9375,15 20.4375,15 C22.375,15 23.125,16.5 23.125,18.6875 L23.125,27.3125 L28.5,27.3125 L28.5,18.0625 C28.5,13.0625 25.875,10.8125 22.3125,10.8125 Z" id="Shape"></path>
        </g>
    </g>
</svg>