<?xml version="1.0" encoding="UTF-8"?>
<svg width="24px" height="24px" viewBox="0 0 24 24" version="1.1" xmlns="http://www.w3.org/2000/svg" xmlns:xlink="http://www.w3.org/1999/xlink">
    <!-- Generator: Sketch 49.1 (51147) - http://www.bohemiancoding.com/sketch -->
    <title>icon/24/email copy 4</title>
    <desc>Created with Sketch.</desc>
    <defs></defs>
    <g id="icon/24/email-copy-4" stroke="none" stroke-width="1" fill="none" fill-rule="evenodd">
        <g id="Group" transform="translate(4.000000, 4.000000)" fill="#002851">
            <path d="M2.40399436,4.37542883 L13.8088166,0.811421871 C14.8631061,0.481956411 15.9848611,1.06954237 16.3143266,2.12383184 C16.3746706,2.31693274 16.4053666,2.51807177 16.4053666,2.72038183 L16.4053666,13.4361148 C16.4053666,14.3276335 16.312541,14.6509198 16.1382339,14.9768457 C15.9639268,15.3027716 15.7081383,15.5585602 15.3822123,15.7328673 C15.0562864,15.9071744 14.7330002,16 13.8414814,16 L6.29982459,16 C5.58049617,16 5.32002966,15.9478058 5.04362405,15.8398904 C4.76721845,15.731975 4.53359445,15.5683383 4.33771655,15.3454535 C4.14183865,15.1225687 4.00377425,14.895621 3.75794876,14.2196009 L1.1209575,6.96787491 C0.743478537,5.92980776 1.27899107,4.78228091 2.31705822,4.40480194 C2.34580848,4.3943473 2.37479482,4.38455369 2.40399436,4.37542883 Z" id="Mask-Copy-2" opacity="0.2" transform="translate(8.702683, 8.359924) scale(-1, 1) translate(-8.702683, -8.359924) "></path>
            <path d="M3.25007845,1.63741188 L12.4291189,0.326120387 C13.5225869,0.169910671 14.5356509,0.929708645 14.6918606,2.02317666 C14.7052444,2.11686324 14.7119616,2.21138164 14.7119616,2.30601937 L14.7119616,13.4361148 C14.7119616,14.3276335 14.619136,14.6509198 14.4448289,14.9768457 C14.2705218,15.3027716 14.0147332,15.5585602 13.6888073,15.7328673 C13.3628814,15.9071744 13.0395951,16 12.1480764,16 L4.98129926,16 C4.16116944,16 3.8630124,15.9252819 3.55559929,15.7796324 C3.24818618,15.633983 2.99846636,15.4174021 2.81080596,15.1336766 C2.62314556,14.8499511 2.50701265,14.5653574 2.39102878,13.7534703 L1.07454971,4.53811686 C0.948469925,3.65555833 0.994643013,3.32239376 1.12110534,2.97509281 C1.24756768,2.62779186 1.46461148,2.33840012 1.76261094,2.11975202 C2.0606104,1.90110391 2.36751992,1.76349167 3.25007845,1.63741188 Z" id="Mask-Copy-3" opacity="0.4" transform="translate(7.855981, 8.152882) scale(-1, 1) translate(-7.855981, -8.152882) "></path>
            <rect id="Mask" x="0" y="0" width="12" height="16" rx="2"></rect>
        </g>
    </g>
</svg>