<?xml version="1.0" encoding="UTF-8"?>
<svg width="32px" height="32px" viewBox="0 0 32 32" version="1.1" xmlns="http://www.w3.org/2000/svg" xmlns:xlink="http://www.w3.org/1999/xlink">
    <!-- Generator: Sketch 49 (51002) - http://www.bohemiancoding.com/sketch -->
    <title>element/social/twitter copy 6</title>
    <desc>Created with Sketch.</desc>
    <defs></defs>
    <g id="element/social/twitter-copy-6" stroke="none" stroke-width="1" fill="none" fill-rule="evenodd">
        <g id="Group" transform="translate(0.000000, 4.000000)" fill="#FFFFFF" fill-rule="nonzero">
            <path d="M31.1868852,3.44235294 C31.8688525,5.90117647 31.842623,11.0258824 31.842623,11.0258824 C31.842623,11.0258824 31.842623,16.1247059 31.1868852,18.5835294 C30.8196721,19.9294118 29.7442623,20.9905882 28.3803279,21.3529412 C25.8885246,22 15.9213115,22 15.9213115,22 C15.9213115,22 5.98032787,22 3.46229508,21.3270588 C2.09836066,20.9647059 1.02295082,19.9035294 0.655737705,18.5576471 C0,16.1247059 0,11 0,11 C0,11 0,5.90117647 0.655737705,3.44235294 C1.02295082,2.09647059 2.12459016,1.00941176 3.46229508,0.647058824 C5.95409836,0 15.9213115,0 15.9213115,0 C15.9213115,0 25.8885246,0 28.3803279,0.672941176 C29.7442623,1.03529412 30.8196721,2.09647059 31.1868852,3.44235294 Z M12.747541,15.7105882 L21.0360656,11 L12.747541,6.28941176 L12.747541,15.7105882 Z" id="Combined-Shape"></path>
        </g>
    </g>
</svg>