<?xml version="1.0" encoding="UTF-8"?>
<svg width="24px" height="24px" viewBox="0 0 24 24" version="1.1" xmlns="http://www.w3.org/2000/svg" xmlns:xlink="http://www.w3.org/1999/xlink">
    <!-- Generator: Sketch 49.1 (51147) - http://www.bohemiancoding.com/sketch -->
    <title>icon/24/email copy 2</title>
    <desc>Created with Sketch.</desc>
    <defs></defs>
    <g id="icon/24/email-copy-2" stroke="none" stroke-width="1" fill="none" fill-rule="evenodd">
        <g id="Group" transform="translate(2.000000, 4.000000)" fill="#002851" fill-rule="nonzero">
            <path d="M2.93061118,12.8563732 C4.93107057,12.2119412 5.42164645,11.5786425 5.45394269,9.85997946 C5.12258366,9.95444478 4.7790194,10.0015979 4.43388555,9.99997917 C3.46520261,9.99997917 2.38981941,8.81591497 2.38981941,5.9999875 C2.38981941,2.29406189 3.66804211,0.999997917 5.11524093,0.999997917 C5.35868429,1.00459915 5.60066962,1.0379403 5.83594459,1.09929771 C6.23402647,0.451165727 7.36773368,0 8.52201783,0 C10.9336071,0 12.6101501,1.98449587 12.6101501,5.33332222 C12.6101501,6.73031931 12.2694724,7.65905071 12.2694724,8.33331597 C12.2232249,8.74730424 12.5278851,9.11991883 12.9508278,9.16664757 C13.5027257,9.16664757 13.6321832,8.67051527 13.6321832,9.33331389 C13.6321832,10.0733123 12.755381,10.3333118 11.588117,10.3333118 C10.8817697,10.3068265 10.1877338,10.1440308 9.54589056,9.85427947 C9.57709664,11.5770425 10.0666164,12.2109412 12.0692902,12.8561065 C13.9524543,13.462772 14.8408395,13.8864377 14.9974831,15.4464012 C15.0118159,15.5877836 14.964478,15.7285161 14.8671291,15.8339348 C14.7697802,15.9393535 14.6314687,15.9996599 14.4862621,16 L0.513537037,16 C0.368362627,15.999614 0.230099472,15.9392862 0.132793466,15.8338718 C0.0354874604,15.7284575 -0.0118198414,15.5877514 0.00252050255,15.4464012 C0.159095969,13.8866377 1.04734491,13.462972 2.93061118,12.8563732 Z" id="Shape"></path>
            <path d="M6.93077254,12.8561065 C8.943629,12.2077079 9.42793554,11.5707092 9.45474683,9.82794619 C9.25610334,9.67438672 9.07602529,9.49914146 8.91801009,9.30561395 C8.48784423,8.72067242 8.22478484,8.03412346 8.15591546,7.31665142 C8.12495624,7.32448426 8.09311644,7.32849322 8.06113909,7.32858473 C7.6916748,7.32858473 7.41197891,6.44135325 7.41197891,5.81732121 C7.41197891,5.19328918 7.60183825,5.00362291 7.78294219,5.00362291 C7.83081647,5.00370033 7.87862706,5.00704175 7.92602656,5.01362289 C7.81788072,4.57222256 7.75974015,4.12051241 7.752656,3.66665903 C7.752656,1.33279722 8.6612077,0 11.5001039,0 C12.8524216,0 12.9435527,0.347665942 13.2034893,0.833331597 C13.3484253,0.720577987 13.5294134,0.661549225 13.7145049,0.666665278 C14.4365019,0.666665278 15.2475518,1.57333006 15.2475518,3.66665903 C15.2404375,4.12051634 15.1822626,4.57222689 15.074079,5.01362289 C15.1214794,5.00705022 15.1692894,5.00370884 15.2171634,5.00362291 C15.3982673,5.00362291 15.5880245,5.19338918 15.5880245,5.81732121 C15.5880245,6.44125325 15.3084308,7.32858473 14.9389665,7.32858473 C14.9069887,7.32849988 14.875148,7.32449082 14.8441901,7.31665142 C14.7753207,8.03412346 14.5122613,8.72067242 14.0820955,9.30561395 C13.9240389,9.49913872 13.7439274,9.6743832 13.5452565,9.82794619 C13.5720678,11.5707092 14.0562722,12.2077079 16.0692308,12.8561065 C17.9523575,13.462772 18.8407411,13.8864377 18.9974866,15.4464012 C19.0118086,15.5877813 18.9644669,15.7285077 18.8671205,15.8339239 C18.7697741,15.9393401 18.6314694,15.9996496 18.4862666,16 L4.51373678,16 C4.36852741,15.9996505 4.23021671,15.9393365 4.13286913,15.8339127 C4.03552156,15.7284889 3.98818456,15.5877534 4.00251675,15.4463678 C4.15926227,13.8863711 5.0475437,13.4627053 6.93077254,12.8561065 Z" id="Shape" opacity="0.4"></path>
        </g>
    </g>
</svg>