<?xml version="1.0" encoding="UTF-8"?>
<svg width="60px" height="59px" viewBox="0 0 60 59" version="1.1" xmlns="http://www.w3.org/2000/svg" xmlns:xlink="http://www.w3.org/1999/xlink">
    <!-- Generator: Sketch 52.6 (67491) - http://www.bohemiancoding.com/sketch -->
    <title>Group 3</title>
    <desc>Created with Sketch.</desc>
    <g id="Acumbamail-web" stroke="none" stroke-width="1" fill="none" fill-rule="evenodd">
        <g id="d/1-0-inicio" transform="translate(-119.000000, -3241.000000)" fill="#FFCC00">
            <g id="Group-12" transform="translate(0.000000, 3161.000000)">
                <g id="Group-8">
                    <g id="Group-3" transform="translate(106.000000, 68.000000)">
                        <g id="europe">
                            <g id="Group" transform="translate(0.777778, 0.000000)">
                                <g id="s-link" transform="translate(29.555556, 8.421053)">
                                    <g id="s">
                                        <g id="c" transform="translate(8.444444, 0.000000)">
                                            <polygon id="t" transform="translate(4.571846, 6.538318) rotate(18.000000) translate(-4.571846, -6.538318) " points="3.5200069 4.4324962 3.51656956 8.64413937 5.62712224 8.6424207"></polygon>
                                            <g id="t-link" transform="translate(4.222222, 6.315789) scale(-1, 1) translate(-4.222222, -6.315789) ">
                                                <polygon id="t" transform="translate(4.571846, 6.538318) rotate(18.000000) translate(-4.571846, -6.538318) " points="3.5200069 4.4324962 3.51656956 8.64413937 5.62712224 8.6424207"></polygon>
                                            </g>
                                        </g>
                                        <g id="a" transform="translate(4.222222, 0.000000)">
                                            <g id="c-link" transform="translate(10.452230, 7.770491) rotate(72.000000) translate(-10.452230, -7.770491) translate(6.230008, 1.454701)">
                                                <g id="c">
                                                    <polygon id="t" transform="translate(4.571846, 6.538318) rotate(18.000000) translate(-4.571846, -6.538318) " points="3.5200069 4.4324962 3.51656956 8.64413937 5.62712224 8.6424207"></polygon>
                                                    <g id="t-link" transform="translate(4.222222, 6.315789) scale(-1, 1) translate(-4.222222, -6.315789) ">
                                                        <polygon id="t" transform="translate(4.571846, 6.538318) rotate(18.000000) translate(-4.571846, -6.538318) " points="3.5200069 4.4324962 3.51656956 8.64413937 5.62712224 8.6424207"></polygon>
                                                    </g>
                                                </g>
                                            </g>
                                            <g id="c-link" transform="translate(9.685324, 10.124246) rotate(144.000000) translate(-9.685324, -10.124246) translate(5.463102, 3.808457)">
                                                <g id="c">
                                                    <polygon id="t" transform="translate(4.571846, 6.538318) rotate(18.000000) translate(-4.571846, -6.538318) " points="3.5200069 4.4324962 3.51656956 8.64413937 5.62712224 8.6424207"></polygon>
                                                    <g id="t-link" transform="translate(4.222222, 6.315789) scale(-1, 1) translate(-4.222222, -6.315789) ">
                                                        <polygon id="t" transform="translate(4.571846, 6.538318) rotate(18.000000) translate(-4.571846, -6.538318) " points="3.5200069 4.4324962 3.51656956 8.64413937 5.62712224 8.6424207"></polygon>
                                                    </g>
                                                </g>
                                            </g>
                                        </g>
                                        <g id="a-link" transform="translate(10.555556, 10.526316) scale(-1, 1) translate(-10.555556, -10.526316) ">
                                            <g id="a">
                                                <g id="c-link" transform="translate(10.452230, 7.770491) rotate(72.000000) translate(-10.452230, -7.770491) translate(6.230008, 1.454701)">
                                                    <g id="c">
                                                        <polygon id="t" transform="translate(4.571846, 6.538318) rotate(18.000000) translate(-4.571846, -6.538318) " points="3.5200069 4.4324962 3.51656956 8.64413937 5.62712224 8.6424207"></polygon>
                                                        <g id="t-link" transform="translate(4.222222, 6.315789) scale(-1, 1) translate(-4.222222, -6.315789) ">
                                                            <polygon id="t" transform="translate(4.571846, 6.538318) rotate(18.000000) translate(-4.571846, -6.538318) " points="3.5200069 4.4324962 3.51656956 8.64413937 5.62712224 8.6424207"></polygon>
                                                        </g>
                                                    </g>
                                                </g>
                                                <g id="c-link" transform="translate(9.685324, 10.124246) rotate(144.000000) translate(-9.685324, -10.124246) translate(5.463102, 3.808457)">
                                                    <g id="c">
                                                        <polygon id="t" transform="translate(4.571846, 6.538318) rotate(18.000000) translate(-4.571846, -6.538318) " points="3.5200069 4.4324962 3.51656956 8.64413937 5.62712224 8.6424207"></polygon>
                                                        <g id="t-link" transform="translate(4.222222, 6.315789) scale(-1, 1) translate(-4.222222, -6.315789) ">
                                                            <polygon id="t" transform="translate(4.571846, 6.538318) rotate(18.000000) translate(-4.571846, -6.538318) " points="3.5200069 4.4324962 3.51656956 8.64413937 5.62712224 8.6424207"></polygon>
                                                        </g>
                                                    </g>
                                                </g>
                                            </g>
                                        </g>
                                    </g>
                                </g>
                                <g id="s-link" transform="translate(29.555556, 58.947368)">
                                    <g id="s">
                                        <g id="c" transform="translate(8.444444, 0.000000)">
                                            <polygon id="t" transform="translate(4.571846, 6.538318) rotate(18.000000) translate(-4.571846, -6.538318) " points="3.5200069 4.4324962 3.51656956 8.64413937 5.62712224 8.6424207"></polygon>
                                            <g id="t-link" transform="translate(4.222222, 6.315789) scale(-1, 1) translate(-4.222222, -6.315789) ">
                                                <polygon id="t" transform="translate(4.571846, 6.538318) rotate(18.000000) translate(-4.571846, -6.538318) " points="3.5200069 4.4324962 3.51656956 8.64413937 5.62712224 8.6424207"></polygon>
                                            </g>
                                        </g>
                                        <g id="a" transform="translate(4.222222, 0.000000)">
                                            <g id="c-link" transform="translate(10.452230, 7.770491) rotate(72.000000) translate(-10.452230, -7.770491) translate(6.230008, 1.454701)">
                                                <g id="c">
                                                    <polygon id="t" transform="translate(4.571846, 6.538318) rotate(18.000000) translate(-4.571846, -6.538318) " points="3.5200069 4.4324962 3.51656956 8.64413937 5.62712224 8.6424207"></polygon>
                                                    <g id="t-link" transform="translate(4.222222, 6.315789) scale(-1, 1) translate(-4.222222, -6.315789) ">
                                                        <polygon id="t" transform="translate(4.571846, 6.538318) rotate(18.000000) translate(-4.571846, -6.538318) " points="3.5200069 4.4324962 3.51656956 8.64413937 5.62712224 8.6424207"></polygon>
                                                    </g>
                                                </g>
                                            </g>
                                            <g id="c-link" transform="translate(9.685324, 10.124246) rotate(144.000000) translate(-9.685324, -10.124246) translate(5.463102, 3.808457)">
                                                <g id="c">
                                                    <polygon id="t" transform="translate(4.571846, 6.538318) rotate(18.000000) translate(-4.571846, -6.538318) " points="3.5200069 4.4324962 3.51656956 8.64413937 5.62712224 8.6424207"></polygon>
                                                    <g id="t-link" transform="translate(4.222222, 6.315789) scale(-1, 1) translate(-4.222222, -6.315789) ">
                                                        <polygon id="t" transform="translate(4.571846, 6.538318) rotate(18.000000) translate(-4.571846, -6.538318) " points="3.5200069 4.4324962 3.51656956 8.64413937 5.62712224 8.6424207"></polygon>
                                                    </g>
                                                </g>
                                            </g>
                                        </g>
                                        <g id="a-link" transform="translate(10.555556, 10.526316) scale(-1, 1) translate(-10.555556, -10.526316) ">
                                            <g id="a">
                                                <g id="c-link" transform="translate(10.452230, 7.770491) rotate(72.000000) translate(-10.452230, -7.770491) translate(6.230008, 1.454701)">
                                                    <g id="c">
                                                        <polygon id="t" transform="translate(4.571846, 6.538318) rotate(18.000000) translate(-4.571846, -6.538318) " points="3.5200069 4.4324962 3.51656956 8.64413937 5.62712224 8.6424207"></polygon>
                                                        <g id="t-link" transform="translate(4.222222, 6.315789) scale(-1, 1) translate(-4.222222, -6.315789) ">
                                                            <polygon id="t" transform="translate(4.571846, 6.538318) rotate(18.000000) translate(-4.571846, -6.538318) " points="3.5200069 4.4324962 3.51656956 8.64413937 5.62712224 8.6424207"></polygon>
                                                        </g>
                                                    </g>
                                                </g>
                                                <g id="c-link" transform="translate(9.685324, 10.124246) rotate(144.000000) translate(-9.685324, -10.124246) translate(5.463102, 3.808457)">
                                                    <g id="c">
                                                        <polygon id="t" transform="translate(4.571846, 6.538318) rotate(18.000000) translate(-4.571846, -6.538318) " points="3.5200069 4.4324962 3.51656956 8.64413937 5.62712224 8.6424207"></polygon>
                                                        <g id="t-link" transform="translate(4.222222, 6.315789) scale(-1, 1) translate(-4.222222, -6.315789) ">
                                                            <polygon id="t" transform="translate(4.571846, 6.538318) rotate(18.000000) translate(-4.571846, -6.538318) " points="3.5200069 4.4324962 3.51656956 8.64413937 5.62712224 8.6424207"></polygon>
                                                        </g>
                                                    </g>
                                                </g>
                                            </g>
                                        </g>
                                    </g>
                                </g>
                                <g id="l">
                                    <g id="s-link" transform="translate(4.222222, 33.684211)">
                                        <g id="s">
                                            <g id="c" transform="translate(8.444444, 0.000000)">
                                                <polygon id="t" transform="translate(4.571846, 6.538318) rotate(18.000000) translate(-4.571846, -6.538318) " points="3.5200069 4.4324962 3.51656956 8.64413937 5.62712224 8.6424207"></polygon>
                                                <g id="t-link" transform="translate(4.222222, 6.315789) scale(-1, 1) translate(-4.222222, -6.315789) ">
                                                    <polygon id="t" transform="translate(4.571846, 6.538318) rotate(18.000000) translate(-4.571846, -6.538318) " points="3.5200069 4.4324962 3.51656956 8.64413937 5.62712224 8.6424207"></polygon>
                                                </g>
                                            </g>
                                            <g id="a" transform="translate(4.222222, 0.000000)">
                                                <g id="c-link" transform="translate(10.452230, 7.770491) rotate(72.000000) translate(-10.452230, -7.770491) translate(6.230008, 1.454701)">
                                                    <g id="c">
                                                        <polygon id="t" transform="translate(4.571846, 6.538318) rotate(18.000000) translate(-4.571846, -6.538318) " points="3.5200069 4.4324962 3.51656956 8.64413937 5.62712224 8.6424207"></polygon>
                                                        <g id="t-link" transform="translate(4.222222, 6.315789) scale(-1, 1) translate(-4.222222, -6.315789) ">
                                                            <polygon id="t" transform="translate(4.571846, 6.538318) rotate(18.000000) translate(-4.571846, -6.538318) " points="3.5200069 4.4324962 3.51656956 8.64413937 5.62712224 8.6424207"></polygon>
                                                        </g>
                                                    </g>
                                                </g>
                                                <g id="c-link" transform="translate(9.685324, 10.124246) rotate(144.000000) translate(-9.685324, -10.124246) translate(5.463102, 3.808457)">
                                                    <g id="c">
                                                        <polygon id="t" transform="translate(4.571846, 6.538318) rotate(18.000000) translate(-4.571846, -6.538318) " points="3.5200069 4.4324962 3.51656956 8.64413937 5.62712224 8.6424207"></polygon>
                                                        <g id="t-link" transform="translate(4.222222, 6.315789) scale(-1, 1) translate(-4.222222, -6.315789) ">
                                                            <polygon id="t" transform="translate(4.571846, 6.538318) rotate(18.000000) translate(-4.571846, -6.538318) " points="3.5200069 4.4324962 3.51656956 8.64413937 5.62712224 8.6424207"></polygon>
                                                        </g>
                                                    </g>
                                                </g>
                                            </g>
                                            <g id="a-link" transform="translate(10.555556, 10.526316) scale(-1, 1) translate(-10.555556, -10.526316) ">
                                                <g id="a">
                                                    <g id="c-link" transform="translate(10.452230, 7.770491) rotate(72.000000) translate(-10.452230, -7.770491) translate(6.230008, 1.454701)">
                                                        <g id="c">
                                                            <polygon id="t" transform="translate(4.571846, 6.538318) rotate(18.000000) translate(-4.571846, -6.538318) " points="3.5200069 4.4324962 3.51656956 8.64413937 5.62712224 8.6424207"></polygon>
                                                            <g id="t-link" transform="translate(4.222222, 6.315789) scale(-1, 1) translate(-4.222222, -6.315789) ">
                                                                <polygon id="t" transform="translate(4.571846, 6.538318) rotate(18.000000) translate(-4.571846, -6.538318) " points="3.5200069 4.4324962 3.51656956 8.64413937 5.62712224 8.6424207"></polygon>
                                                            </g>
                                                        </g>
                                                    </g>
                                                    <g id="c-link" transform="translate(9.685324, 10.124246) rotate(144.000000) translate(-9.685324, -10.124246) translate(5.463102, 3.808457)">
                                                        <g id="c">
                                                            <polygon id="t" transform="translate(4.571846, 6.538318) rotate(18.000000) translate(-4.571846, -6.538318) " points="3.5200069 4.4324962 3.51656956 8.64413937 5.62712224 8.6424207"></polygon>
                                                            <g id="t-link" transform="translate(4.222222, 6.315789) scale(-1, 1) translate(-4.222222, -6.315789) ">
                                                                <polygon id="t" transform="translate(4.571846, 6.538318) rotate(18.000000) translate(-4.571846, -6.538318) " points="3.5200069 4.4324962 3.51656956 8.64413937 5.62712224 8.6424207"></polygon>
                                                            </g>
                                                        </g>
                                                    </g>
                                                </g>
                                            </g>
                                        </g>
                                    </g>
                                    <g id="s-link" transform="translate(30.796436, 18.523533) rotate(-144.000000) translate(-30.796436, -18.523533) translate(18.129769, 7.997217)">
                                        <g id="s">
                                            <g id="c" transform="translate(8.444444, 0.000000)">
                                                <polygon id="t" transform="translate(4.571846, 6.538318) rotate(18.000000) translate(-4.571846, -6.538318) " points="3.5200069 4.4324962 3.51656956 8.64413937 5.62712224 8.6424207"></polygon>
                                                <g id="t-link" transform="translate(4.222222, 6.315789) scale(-1, 1) translate(-4.222222, -6.315789) ">
                                                    <polygon id="t" transform="translate(4.571846, 6.538318) rotate(18.000000) translate(-4.571846, -6.538318) " points="3.5200069 4.4324962 3.51656956 8.64413937 5.62712224 8.6424207"></polygon>
                                                </g>
                                            </g>
                                            <g id="a" transform="translate(4.222222, 0.000000)">
                                                <g id="c-link" transform="translate(10.452230, 7.770491) rotate(72.000000) translate(-10.452230, -7.770491) translate(6.230008, 1.454701)">
                                                    <g id="c">
                                                        <polygon id="t" transform="translate(4.571846, 6.538318) rotate(18.000000) translate(-4.571846, -6.538318) " points="3.5200069 4.4324962 3.51656956 8.64413937 5.62712224 8.6424207"></polygon>
                                                        <g id="t-link" transform="translate(4.222222, 6.315789) scale(-1, 1) translate(-4.222222, -6.315789) ">
                                                            <polygon id="t" transform="translate(4.571846, 6.538318) rotate(18.000000) translate(-4.571846, -6.538318) " points="3.5200069 4.4324962 3.51656956 8.64413937 5.62712224 8.6424207"></polygon>
                                                        </g>
                                                    </g>
                                                </g>
                                                <g id="c-link" transform="translate(9.685324, 10.124246) rotate(144.000000) translate(-9.685324, -10.124246) translate(5.463102, 3.808457)">
                                                    <g id="c">
                                                        <polygon id="t" transform="translate(4.571846, 6.538318) rotate(18.000000) translate(-4.571846, -6.538318) " points="3.5200069 4.4324962 3.51656956 8.64413937 5.62712224 8.6424207"></polygon>
                                                        <g id="t-link" transform="translate(4.222222, 6.315789) scale(-1, 1) translate(-4.222222, -6.315789) ">
                                                            <polygon id="t" transform="translate(4.571846, 6.538318) rotate(18.000000) translate(-4.571846, -6.538318) " points="3.5200069 4.4324962 3.51656956 8.64413937 5.62712224 8.6424207"></polygon>
                                                        </g>
                                                    </g>
                                                </g>
                                            </g>
                                            <g id="a-link" transform="translate(10.555556, 10.526316) scale(-1, 1) translate(-10.555556, -10.526316) ">
                                                <g id="a">
                                                    <g id="c-link" transform="translate(10.452230, 7.770491) rotate(72.000000) translate(-10.452230, -7.770491) translate(6.230008, 1.454701)">
                                                        <g id="c">
                                                            <polygon id="t" transform="translate(4.571846, 6.538318) rotate(18.000000) translate(-4.571846, -6.538318) " points="3.5200069 4.4324962 3.51656956 8.64413937 5.62712224 8.6424207"></polygon>
                                                            <g id="t-link" transform="translate(4.222222, 6.315789) scale(-1, 1) translate(-4.222222, -6.315789) ">
                                                                <polygon id="t" transform="translate(4.571846, 6.538318) rotate(18.000000) translate(-4.571846, -6.538318) " points="3.5200069 4.4324962 3.51656956 8.64413937 5.62712224 8.6424207"></polygon>
                                                            </g>
                                                        </g>
                                                    </g>
                                                    <g id="c-link" transform="translate(9.685324, 10.124246) rotate(144.000000) translate(-9.685324, -10.124246) translate(5.463102, 3.808457)">
                                                        <g id="c">
                                                            <polygon id="t" transform="translate(4.571846, 6.538318) rotate(18.000000) translate(-4.571846, -6.538318) " points="3.5200069 4.4324962 3.51656956 8.64413937 5.62712224 8.6424207"></polygon>
                                                            <g id="t-link" transform="translate(4.222222, 6.315789) scale(-1, 1) translate(-4.222222, -6.315789) ">
                                                                <polygon id="t" transform="translate(4.571846, 6.538318) rotate(18.000000) translate(-4.571846, -6.538318) " points="3.5200069 4.4324962 3.51656956 8.64413937 5.62712224 8.6424207"></polygon>
                                                            </g>
                                                        </g>
                                                    </g>
                                                </g>
                                            </g>
                                        </g>
                                    </g>
                                    <g id="s-link" transform="translate(19.042032, 27.770491) rotate(144.000000) translate(-19.042032, -27.770491) translate(6.375365, 17.244175)">
                                        <g id="s">
                                            <g id="c" transform="translate(8.444444, 0.000000)">
                                                <polygon id="t" transform="translate(4.571846, 6.538318) rotate(18.000000) translate(-4.571846, -6.538318) " points="3.5200069 4.4324962 3.51656956 8.64413937 5.62712224 8.6424207"></polygon>
                                                <g id="t-link" transform="translate(4.222222, 6.315789) scale(-1, 1) translate(-4.222222, -6.315789) ">
                                                    <polygon id="t" transform="translate(4.571846, 6.538318) rotate(18.000000) translate(-4.571846, -6.538318) " points="3.5200069 4.4324962 3.51656956 8.64413937 5.62712224 8.6424207"></polygon>
                                                </g>
                                            </g>
                                            <g id="a" transform="translate(4.222222, 0.000000)">
                                                <g id="c-link" transform="translate(10.452230, 7.770491) rotate(72.000000) translate(-10.452230, -7.770491) translate(6.230008, 1.454701)">
                                                    <g id="c">
                                                        <polygon id="t" transform="translate(4.571846, 6.538318) rotate(18.000000) translate(-4.571846, -6.538318) " points="3.5200069 4.4324962 3.51656956 8.64413937 5.62712224 8.6424207"></polygon>
                                                        <g id="t-link" transform="translate(4.222222, 6.315789) scale(-1, 1) translate(-4.222222, -6.315789) ">
                                                            <polygon id="t" transform="translate(4.571846, 6.538318) rotate(18.000000) translate(-4.571846, -6.538318) " points="3.5200069 4.4324962 3.51656956 8.64413937 5.62712224 8.6424207"></polygon>
                                                        </g>
                                                    </g>
                                                </g>
                                                <g id="c-link" transform="translate(9.685324, 10.124246) rotate(144.000000) translate(-9.685324, -10.124246) translate(5.463102, 3.808457)">
                                                    <g id="c">
                                                        <polygon id="t" transform="translate(4.571846, 6.538318) rotate(18.000000) translate(-4.571846, -6.538318) " points="3.5200069 4.4324962 3.51656956 8.64413937 5.62712224 8.6424207"></polygon>
                                                        <g id="t-link" transform="translate(4.222222, 6.315789) scale(-1, 1) translate(-4.222222, -6.315789) ">
                                                            <polygon id="t" transform="translate(4.571846, 6.538318) rotate(18.000000) translate(-4.571846, -6.538318) " points="3.5200069 4.4324962 3.51656956 8.64413937 5.62712224 8.6424207"></polygon>
                                                        </g>
                                                    </g>
                                                </g>
                                            </g>
                                            <g id="a-link" transform="translate(10.555556, 10.526316) scale(-1, 1) translate(-10.555556, -10.526316) ">
                                                <g id="a">
                                                    <g id="c-link" transform="translate(10.452230, 7.770491) rotate(72.000000) translate(-10.452230, -7.770491) translate(6.230008, 1.454701)">
                                                        <g id="c">
                                                            <polygon id="t" transform="translate(4.571846, 6.538318) rotate(18.000000) translate(-4.571846, -6.538318) " points="3.5200069 4.4324962 3.51656956 8.64413937 5.62712224 8.6424207"></polygon>
                                                            <g id="t-link" transform="translate(4.222222, 6.315789) scale(-1, 1) translate(-4.222222, -6.315789) ">
                                                                <polygon id="t" transform="translate(4.571846, 6.538318) rotate(18.000000) translate(-4.571846, -6.538318) " points="3.5200069 4.4324962 3.51656956 8.64413937 5.62712224 8.6424207"></polygon>
                                                            </g>
                                                        </g>
                                                    </g>
                                                    <g id="c-link" transform="translate(9.685324, 10.124246) rotate(144.000000) translate(-9.685324, -10.124246) translate(5.463102, 3.808457)">
                                                        <g id="c">
                                                            <polygon id="t" transform="translate(4.571846, 6.538318) rotate(18.000000) translate(-4.571846, -6.538318) " points="3.5200069 4.4324962 3.51656956 8.64413937 5.62712224 8.6424207"></polygon>
                                                            <g id="t-link" transform="translate(4.222222, 6.315789) scale(-1, 1) translate(-4.222222, -6.315789) ">
                                                                <polygon id="t" transform="translate(4.571846, 6.538318) rotate(18.000000) translate(-4.571846, -6.538318) " points="3.5200069 4.4324962 3.51656956 8.64413937 5.62712224 8.6424207"></polygon>
                                                            </g>
                                                        </g>
                                                    </g>
                                                </g>
                                            </g>
                                        </g>
                                    </g>
                                    <g id="s-link" transform="translate(18.275126, 55.387404) rotate(72.000000) translate(-18.275126, -55.387404) translate(5.608459, 44.861088)">
                                        <g id="s">
                                            <g id="c" transform="translate(8.444444, 0.000000)">
                                                <polygon id="t" transform="translate(4.571846, 6.538318) rotate(18.000000) translate(-4.571846, -6.538318) " points="3.5200069 4.4324962 3.51656956 8.64413937 5.62712224 8.6424207"></polygon>
                                                <g id="t-link" transform="translate(4.222222, 6.315789) scale(-1, 1) translate(-4.222222, -6.315789) ">
                                                    <polygon id="t" transform="translate(4.571846, 6.538318) rotate(18.000000) translate(-4.571846, -6.538318) " points="3.5200069 4.4324962 3.51656956 8.64413937 5.62712224 8.6424207"></polygon>
                                                </g>
                                            </g>
                                            <g id="a" transform="translate(4.222222, 0.000000)">
                                                <g id="c-link" transform="translate(10.452230, 7.770491) rotate(72.000000) translate(-10.452230, -7.770491) translate(6.230008, 1.454701)">
                                                    <g id="c">
                                                        <polygon id="t" transform="translate(4.571846, 6.538318) rotate(18.000000) translate(-4.571846, -6.538318) " points="3.5200069 4.4324962 3.51656956 8.64413937 5.62712224 8.6424207"></polygon>
                                                        <g id="t-link" transform="translate(4.222222, 6.315789) scale(-1, 1) translate(-4.222222, -6.315789) ">
                                                            <polygon id="t" transform="translate(4.571846, 6.538318) rotate(18.000000) translate(-4.571846, -6.538318) " points="3.5200069 4.4324962 3.51656956 8.64413937 5.62712224 8.6424207"></polygon>
                                                        </g>
                                                    </g>
                                                </g>
                                                <g id="c-link" transform="translate(9.685324, 10.124246) rotate(144.000000) translate(-9.685324, -10.124246) translate(5.463102, 3.808457)">
                                                    <g id="c">
                                                        <polygon id="t" transform="translate(4.571846, 6.538318) rotate(18.000000) translate(-4.571846, -6.538318) " points="3.5200069 4.4324962 3.51656956 8.64413937 5.62712224 8.6424207"></polygon>
                                                        <g id="t-link" transform="translate(4.222222, 6.315789) scale(-1, 1) translate(-4.222222, -6.315789) ">
                                                            <polygon id="t" transform="translate(4.571846, 6.538318) rotate(18.000000) translate(-4.571846, -6.538318) " points="3.5200069 4.4324962 3.51656956 8.64413937 5.62712224 8.6424207"></polygon>
                                                        </g>
                                                    </g>
                                                </g>
                                            </g>
                                            <g id="a-link" transform="translate(10.555556, 10.526316) scale(-1, 1) translate(-10.555556, -10.526316) ">
                                                <g id="a">
                                                    <g id="c-link" transform="translate(10.452230, 7.770491) rotate(72.000000) translate(-10.452230, -7.770491) translate(6.230008, 1.454701)">
                                                        <g id="c">
                                                            <polygon id="t" transform="translate(4.571846, 6.538318) rotate(18.000000) translate(-4.571846, -6.538318) " points="3.5200069 4.4324962 3.51656956 8.64413937 5.62712224 8.6424207"></polygon>
                                                            <g id="t-link" transform="translate(4.222222, 6.315789) scale(-1, 1) translate(-4.222222, -6.315789) ">
                                                                <polygon id="t" transform="translate(4.571846, 6.538318) rotate(18.000000) translate(-4.571846, -6.538318) " points="3.5200069 4.4324962 3.51656956 8.64413937 5.62712224 8.6424207"></polygon>
                                                            </g>
                                                        </g>
                                                    </g>
                                                    <g id="c-link" transform="translate(9.685324, 10.124246) rotate(144.000000) translate(-9.685324, -10.124246) translate(5.463102, 3.808457)">
                                                        <g id="c">
                                                            <polygon id="t" transform="translate(4.571846, 6.538318) rotate(18.000000) translate(-4.571846, -6.538318) " points="3.5200069 4.4324962 3.51656956 8.64413937 5.62712224 8.6424207"></polygon>
                                                            <g id="t-link" transform="translate(4.222222, 6.315789) scale(-1, 1) translate(-4.222222, -6.315789) ">
                                                                <polygon id="t" transform="translate(4.571846, 6.538318) rotate(18.000000) translate(-4.571846, -6.538318) " points="3.5200069 4.4324962 3.51656956 8.64413937 5.62712224 8.6424207"></polygon>
                                                            </g>
                                                        </g>
                                                    </g>
                                                </g>
                                            </g>
                                        </g>
                                    </g>
                                    <g id="s-link" transform="translate(27.547770, 64.634362) rotate(72.000000) translate(-27.547770, -64.634362) translate(14.881103, 54.108046)">
                                        <g id="s">
                                            <g id="c" transform="translate(8.444444, 0.000000)">
                                                <polygon id="t" transform="translate(4.571846, 6.538318) rotate(18.000000) translate(-4.571846, -6.538318) " points="3.5200069 4.4324962 3.51656956 8.64413937 5.62712224 8.6424207"></polygon>
                                                <g id="t-link" transform="translate(4.222222, 6.315789) scale(-1, 1) translate(-4.222222, -6.315789) ">
                                                    <polygon id="t" transform="translate(4.571846, 6.538318) rotate(18.000000) translate(-4.571846, -6.538318) " points="3.5200069 4.4324962 3.51656956 8.64413937 5.62712224 8.6424207"></polygon>
                                                </g>
                                            </g>
                                            <g id="a" transform="translate(4.222222, 0.000000)">
                                                <g id="c-link" transform="translate(10.452230, 7.770491) rotate(72.000000) translate(-10.452230, -7.770491) translate(6.230008, 1.454701)">
                                                    <g id="c">
                                                        <polygon id="t" transform="translate(4.571846, 6.538318) rotate(18.000000) translate(-4.571846, -6.538318) " points="3.5200069 4.4324962 3.51656956 8.64413937 5.62712224 8.6424207"></polygon>
                                                        <g id="t-link" transform="translate(4.222222, 6.315789) scale(-1, 1) translate(-4.222222, -6.315789) ">
                                                            <polygon id="t" transform="translate(4.571846, 6.538318) rotate(18.000000) translate(-4.571846, -6.538318) " points="3.5200069 4.4324962 3.51656956 8.64413937 5.62712224 8.6424207"></polygon>
                                                        </g>
                                                    </g>
                                                </g>
                                                <g id="c-link" transform="translate(9.685324, 10.124246) rotate(144.000000) translate(-9.685324, -10.124246) translate(5.463102, 3.808457)">
                                                    <g id="c">
                                                        <polygon id="t" transform="translate(4.571846, 6.538318) rotate(18.000000) translate(-4.571846, -6.538318) " points="3.5200069 4.4324962 3.51656956 8.64413937 5.62712224 8.6424207"></polygon>
                                                        <g id="t-link" transform="translate(4.222222, 6.315789) scale(-1, 1) translate(-4.222222, -6.315789) ">
                                                            <polygon id="t" transform="translate(4.571846, 6.538318) rotate(18.000000) translate(-4.571846, -6.538318) " points="3.5200069 4.4324962 3.51656956 8.64413937 5.62712224 8.6424207"></polygon>
                                                        </g>
                                                    </g>
                                                </g>
                                            </g>
                                            <g id="a-link" transform="translate(10.555556, 10.526316) scale(-1, 1) translate(-10.555556, -10.526316) ">
                                                <g id="a">
                                                    <g id="c-link" transform="translate(10.452230, 7.770491) rotate(72.000000) translate(-10.452230, -7.770491) translate(6.230008, 1.454701)">
                                                        <g id="c">
                                                            <polygon id="t" transform="translate(4.571846, 6.538318) rotate(18.000000) translate(-4.571846, -6.538318) " points="3.5200069 4.4324962 3.51656956 8.64413937 5.62712224 8.6424207"></polygon>
                                                            <g id="t-link" transform="translate(4.222222, 6.315789) scale(-1, 1) translate(-4.222222, -6.315789) ">
                                                                <polygon id="t" transform="translate(4.571846, 6.538318) rotate(18.000000) translate(-4.571846, -6.538318) " points="3.5200069 4.4324962 3.51656956 8.64413937 5.62712224 8.6424207"></polygon>
                                                            </g>
                                                        </g>
                                                    </g>
                                                    <g id="c-link" transform="translate(9.685324, 10.124246) rotate(144.000000) translate(-9.685324, -10.124246) translate(5.463102, 3.808457)">
                                                        <g id="c">
                                                            <polygon id="t" transform="translate(4.571846, 6.538318) rotate(18.000000) translate(-4.571846, -6.538318) " points="3.5200069 4.4324962 3.51656956 8.64413937 5.62712224 8.6424207"></polygon>
                                                            <g id="t-link" transform="translate(4.222222, 6.315789) scale(-1, 1) translate(-4.222222, -6.315789) ">
                                                                <polygon id="t" transform="translate(4.571846, 6.538318) rotate(18.000000) translate(-4.571846, -6.538318) " points="3.5200069 4.4324962 3.51656956 8.64413937 5.62712224 8.6424207"></polygon>
                                                            </g>
                                                        </g>
                                                    </g>
                                                </g>
                                            </g>
                                        </g>
                                    </g>
                                </g>
                                <g id="l-link" transform="translate(59.111111, 40.000000) scale(-1, 1) translate(-59.111111, -40.000000) translate(33.777778, 0.000000)">
                                    <g id="l">
                                        <g id="s-link" transform="translate(4.222222, 33.684211)">
                                            <g id="s">
                                                <g id="c" transform="translate(8.444444, 0.000000)">
                                                    <polygon id="t" transform="translate(4.571846, 6.538318) rotate(18.000000) translate(-4.571846, -6.538318) " points="3.5200069 4.4324962 3.51656956 8.64413937 5.62712224 8.6424207"></polygon>
                                                    <g id="t-link" transform="translate(4.222222, 6.315789) scale(-1, 1) translate(-4.222222, -6.315789) ">
                                                        <polygon id="t" transform="translate(4.571846, 6.538318) rotate(18.000000) translate(-4.571846, -6.538318) " points="3.5200069 4.4324962 3.51656956 8.64413937 5.62712224 8.6424207"></polygon>
                                                    </g>
                                                </g>
                                                <g id="a" transform="translate(4.222222, 0.000000)">
                                                    <g id="c-link" transform="translate(10.452230, 7.770491) rotate(72.000000) translate(-10.452230, -7.770491) translate(6.230008, 1.454701)">
                                                        <g id="c">
                                                            <polygon id="t" transform="translate(4.571846, 6.538318) rotate(18.000000) translate(-4.571846, -6.538318) " points="3.5200069 4.4324962 3.51656956 8.64413937 5.62712224 8.6424207"></polygon>
                                                            <g id="t-link" transform="translate(4.222222, 6.315789) scale(-1, 1) translate(-4.222222, -6.315789) ">
                                                                <polygon id="t" transform="translate(4.571846, 6.538318) rotate(18.000000) translate(-4.571846, -6.538318) " points="3.5200069 4.4324962 3.51656956 8.64413937 5.62712224 8.6424207"></polygon>
                                                            </g>
                                                        </g>
                                                    </g>
                                                    <g id="c-link" transform="translate(9.685324, 10.124246) rotate(144.000000) translate(-9.685324, -10.124246) translate(5.463102, 3.808457)">
                                                        <g id="c">
                                                            <polygon id="t" transform="translate(4.571846, 6.538318) rotate(18.000000) translate(-4.571846, -6.538318) " points="3.5200069 4.4324962 3.51656956 8.64413937 5.62712224 8.6424207"></polygon>
                                                            <g id="t-link" transform="translate(4.222222, 6.315789) scale(-1, 1) translate(-4.222222, -6.315789) ">
                                                                <polygon id="t" transform="translate(4.571846, 6.538318) rotate(18.000000) translate(-4.571846, -6.538318) " points="3.5200069 4.4324962 3.51656956 8.64413937 5.62712224 8.6424207"></polygon>
                                                            </g>
                                                        </g>
                                                    </g>
                                                </g>
                                                <g id="a-link" transform="translate(10.555556, 10.526316) scale(-1, 1) translate(-10.555556, -10.526316) ">
                                                    <g id="a">
                                                        <g id="c-link" transform="translate(10.452230, 7.770491) rotate(72.000000) translate(-10.452230, -7.770491) translate(6.230008, 1.454701)">
                                                            <g id="c">
                                                                <polygon id="t" transform="translate(4.571846, 6.538318) rotate(18.000000) translate(-4.571846, -6.538318) " points="3.5200069 4.4324962 3.51656956 8.64413937 5.62712224 8.6424207"></polygon>
                                                                <g id="t-link" transform="translate(4.222222, 6.315789) scale(-1, 1) translate(-4.222222, -6.315789) ">
                                                                    <polygon id="t" transform="translate(4.571846, 6.538318) rotate(18.000000) translate(-4.571846, -6.538318) " points="3.5200069 4.4324962 3.51656956 8.64413937 5.62712224 8.6424207"></polygon>
                                                                </g>
                                                            </g>
                                                        </g>
                                                        <g id="c-link" transform="translate(9.685324, 10.124246) rotate(144.000000) translate(-9.685324, -10.124246) translate(5.463102, 3.808457)">
                                                            <g id="c">
                                                                <polygon id="t" transform="translate(4.571846, 6.538318) rotate(18.000000) translate(-4.571846, -6.538318) " points="3.5200069 4.4324962 3.51656956 8.64413937 5.62712224 8.6424207"></polygon>
                                                                <g id="t-link" transform="translate(4.222222, 6.315789) scale(-1, 1) translate(-4.222222, -6.315789) ">
                                                                    <polygon id="t" transform="translate(4.571846, 6.538318) rotate(18.000000) translate(-4.571846, -6.538318) " points="3.5200069 4.4324962 3.51656956 8.64413937 5.62712224 8.6424207"></polygon>
                                                                </g>
                                                            </g>
                                                        </g>
                                                    </g>
                                                </g>
                                            </g>
                                        </g>
                                        <g id="s-link" transform="translate(30.796436, 18.523533) rotate(-144.000000) translate(-30.796436, -18.523533) translate(18.129769, 7.997217)">
                                            <g id="s">
                                                <g id="c" transform="translate(8.444444, 0.000000)">
                                                    <polygon id="t" transform="translate(4.571846, 6.538318) rotate(18.000000) translate(-4.571846, -6.538318) " points="3.5200069 4.4324962 3.51656956 8.64413937 5.62712224 8.6424207"></polygon>
                                                    <g id="t-link" transform="translate(4.222222, 6.315789) scale(-1, 1) translate(-4.222222, -6.315789) ">
                                                        <polygon id="t" transform="translate(4.571846, 6.538318) rotate(18.000000) translate(-4.571846, -6.538318) " points="3.5200069 4.4324962 3.51656956 8.64413937 5.62712224 8.6424207"></polygon>
                                                    </g>
                                                </g>
                                                <g id="a" transform="translate(4.222222, 0.000000)">
                                                    <g id="c-link" transform="translate(10.452230, 7.770491) rotate(72.000000) translate(-10.452230, -7.770491) translate(6.230008, 1.454701)">
                                                        <g id="c">
                                                            <polygon id="t" transform="translate(4.571846, 6.538318) rotate(18.000000) translate(-4.571846, -6.538318) " points="3.5200069 4.4324962 3.51656956 8.64413937 5.62712224 8.6424207"></polygon>
                                                            <g id="t-link" transform="translate(4.222222, 6.315789) scale(-1, 1) translate(-4.222222, -6.315789) ">
                                                                <polygon id="t" transform="translate(4.571846, 6.538318) rotate(18.000000) translate(-4.571846, -6.538318) " points="3.5200069 4.4324962 3.51656956 8.64413937 5.62712224 8.6424207"></polygon>
                                                            </g>
                                                        </g>
                                                    </g>
                                                    <g id="c-link" transform="translate(9.685324, 10.124246) rotate(144.000000) translate(-9.685324, -10.124246) translate(5.463102, 3.808457)">
                                                        <g id="c">
                                                            <polygon id="t" transform="translate(4.571846, 6.538318) rotate(18.000000) translate(-4.571846, -6.538318) " points="3.5200069 4.4324962 3.51656956 8.64413937 5.62712224 8.6424207"></polygon>
                                                            <g id="t-link" transform="translate(4.222222, 6.315789) scale(-1, 1) translate(-4.222222, -6.315789) ">
                                                                <polygon id="t" transform="translate(4.571846, 6.538318) rotate(18.000000) translate(-4.571846, -6.538318) " points="3.5200069 4.4324962 3.51656956 8.64413937 5.62712224 8.6424207"></polygon>
                                                            </g>
                                                        </g>
                                                    </g>
                                                </g>
                                                <g id="a-link" transform="translate(10.555556, 10.526316) scale(-1, 1) translate(-10.555556, -10.526316) ">
                                                    <g id="a">
                                                        <g id="c-link" transform="translate(10.452230, 7.770491) rotate(72.000000) translate(-10.452230, -7.770491) translate(6.230008, 1.454701)">
                                                            <g id="c">
                                                                <polygon id="t" transform="translate(4.571846, 6.538318) rotate(18.000000) translate(-4.571846, -6.538318) " points="3.5200069 4.4324962 3.51656956 8.64413937 5.62712224 8.6424207"></polygon>
                                                                <g id="t-link" transform="translate(4.222222, 6.315789) scale(-1, 1) translate(-4.222222, -6.315789) ">
                                                                    <polygon id="t" transform="translate(4.571846, 6.538318) rotate(18.000000) translate(-4.571846, -6.538318) " points="3.5200069 4.4324962 3.51656956 8.64413937 5.62712224 8.6424207"></polygon>
                                                                </g>
                                                            </g>
                                                        </g>
                                                        <g id="c-link" transform="translate(9.685324, 10.124246) rotate(144.000000) translate(-9.685324, -10.124246) translate(5.463102, 3.808457)">
                                                            <g id="c">
                                                                <polygon id="t" transform="translate(4.571846, 6.538318) rotate(18.000000) translate(-4.571846, -6.538318) " points="3.5200069 4.4324962 3.51656956 8.64413937 5.62712224 8.6424207"></polygon>
                                                                <g id="t-link" transform="translate(4.222222, 6.315789) scale(-1, 1) translate(-4.222222, -6.315789) ">
                                                                    <polygon id="t" transform="translate(4.571846, 6.538318) rotate(18.000000) translate(-4.571846, -6.538318) " points="3.5200069 4.4324962 3.51656956 8.64413937 5.62712224 8.6424207"></polygon>
                                                                </g>
                                                            </g>
                                                        </g>
                                                    </g>
                                                </g>
                                            </g>
                                        </g>
                                        <g id="s-link" transform="translate(19.042032, 27.770491) rotate(144.000000) translate(-19.042032, -27.770491) translate(6.375365, 17.244175)">
                                            <g id="s">
                                                <g id="c" transform="translate(8.444444, 0.000000)">
                                                    <polygon id="t" transform="translate(4.571846, 6.538318) rotate(18.000000) translate(-4.571846, -6.538318) " points="3.5200069 4.4324962 3.51656956 8.64413937 5.62712224 8.6424207"></polygon>
                                                    <g id="t-link" transform="translate(4.222222, 6.315789) scale(-1, 1) translate(-4.222222, -6.315789) ">
                                                        <polygon id="t" transform="translate(4.571846, 6.538318) rotate(18.000000) translate(-4.571846, -6.538318) " points="3.5200069 4.4324962 3.51656956 8.64413937 5.62712224 8.6424207"></polygon>
                                                    </g>
                                                </g>
                                                <g id="a" transform="translate(4.222222, 0.000000)">
                                                    <g id="c-link" transform="translate(10.452230, 7.770491) rotate(72.000000) translate(-10.452230, -7.770491) translate(6.230008, 1.454701)">
                                                        <g id="c">
                                                            <polygon id="t" transform="translate(4.571846, 6.538318) rotate(18.000000) translate(-4.571846, -6.538318) " points="3.5200069 4.4324962 3.51656956 8.64413937 5.62712224 8.6424207"></polygon>
                                                            <g id="t-link" transform="translate(4.222222, 6.315789) scale(-1, 1) translate(-4.222222, -6.315789) ">
                                                                <polygon id="t" transform="translate(4.571846, 6.538318) rotate(18.000000) translate(-4.571846, -6.538318) " points="3.5200069 4.4324962 3.51656956 8.64413937 5.62712224 8.6424207"></polygon>
                                                            </g>
                                                        </g>
                                                    </g>
                                                    <g id="c-link" transform="translate(9.685324, 10.124246) rotate(144.000000) translate(-9.685324, -10.124246) translate(5.463102, 3.808457)">
                                                        <g id="c">
                                                            <polygon id="t" transform="translate(4.571846, 6.538318) rotate(18.000000) translate(-4.571846, -6.538318) " points="3.5200069 4.4324962 3.51656956 8.64413937 5.62712224 8.6424207"></polygon>
                                                            <g id="t-link" transform="translate(4.222222, 6.315789) scale(-1, 1) translate(-4.222222, -6.315789) ">
                                                                <polygon id="t" transform="translate(4.571846, 6.538318) rotate(18.000000) translate(-4.571846, -6.538318) " points="3.5200069 4.4324962 3.51656956 8.64413937 5.62712224 8.6424207"></polygon>
                                                            </g>
                                                        </g>
                                                    </g>
                                                </g>
                                                <g id="a-link" transform="translate(10.555556, 10.526316) scale(-1, 1) translate(-10.555556, -10.526316) ">
                                                    <g id="a">
                                                        <g id="c-link" transform="translate(10.452230, 7.770491) rotate(72.000000) translate(-10.452230, -7.770491) translate(6.230008, 1.454701)">
                                                            <g id="c">
                                                                <polygon id="t" transform="translate(4.571846, 6.538318) rotate(18.000000) translate(-4.571846, -6.538318) " points="3.5200069 4.4324962 3.51656956 8.64413937 5.62712224 8.6424207"></polygon>
                                                                <g id="t-link" transform="translate(4.222222, 6.315789) scale(-1, 1) translate(-4.222222, -6.315789) ">
                                                                    <polygon id="t" transform="translate(4.571846, 6.538318) rotate(18.000000) translate(-4.571846, -6.538318) " points="3.5200069 4.4324962 3.51656956 8.64413937 5.62712224 8.6424207"></polygon>
                                                                </g>
                                                            </g>
                                                        </g>
                                                        <g id="c-link" transform="translate(9.685324, 10.124246) rotate(144.000000) translate(-9.685324, -10.124246) translate(5.463102, 3.808457)">
                                                            <g id="c">
                                                                <polygon id="t" transform="translate(4.571846, 6.538318) rotate(18.000000) translate(-4.571846, -6.538318) " points="3.5200069 4.4324962 3.51656956 8.64413937 5.62712224 8.6424207"></polygon>
                                                                <g id="t-link" transform="translate(4.222222, 6.315789) scale(-1, 1) translate(-4.222222, -6.315789) ">
                                                                    <polygon id="t" transform="translate(4.571846, 6.538318) rotate(18.000000) translate(-4.571846, -6.538318) " points="3.5200069 4.4324962 3.51656956 8.64413937 5.62712224 8.6424207"></polygon>
                                                                </g>
                                                            </g>
                                                        </g>
                                                    </g>
                                                </g>
                                            </g>
                                        </g>
                                        <g id="s-link" transform="translate(18.275126, 55.387404) rotate(72.000000) translate(-18.275126, -55.387404) translate(5.608459, 44.861088)">
                                            <g id="s">
                                                <g id="c" transform="translate(8.444444, 0.000000)">
                                                    <polygon id="t" transform="translate(4.571846, 6.538318) rotate(18.000000) translate(-4.571846, -6.538318) " points="3.5200069 4.4324962 3.51656956 8.64413937 5.62712224 8.6424207"></polygon>
                                                    <g id="t-link" transform="translate(4.222222, 6.315789) scale(-1, 1) translate(-4.222222, -6.315789) ">
                                                        <polygon id="t" transform="translate(4.571846, 6.538318) rotate(18.000000) translate(-4.571846, -6.538318) " points="3.5200069 4.4324962 3.51656956 8.64413937 5.62712224 8.6424207"></polygon>
                                                    </g>
                                                </g>
                                                <g id="a" transform="translate(4.222222, 0.000000)">
                                                    <g id="c-link" transform="translate(10.452230, 7.770491) rotate(72.000000) translate(-10.452230, -7.770491) translate(6.230008, 1.454701)">
                                                        <g id="c">
                                                            <polygon id="t" transform="translate(4.571846, 6.538318) rotate(18.000000) translate(-4.571846, -6.538318) " points="3.5200069 4.4324962 3.51656956 8.64413937 5.62712224 8.6424207"></polygon>
                                                            <g id="t-link" transform="translate(4.222222, 6.315789) scale(-1, 1) translate(-4.222222, -6.315789) ">
                                                                <polygon id="t" transform="translate(4.571846, 6.538318) rotate(18.000000) translate(-4.571846, -6.538318) " points="3.5200069 4.4324962 3.51656956 8.64413937 5.62712224 8.6424207"></polygon>
                                                            </g>
                                                        </g>
                                                    </g>
                                                    <g id="c-link" transform="translate(9.685324, 10.124246) rotate(144.000000) translate(-9.685324, -10.124246) translate(5.463102, 3.808457)">
                                                        <g id="c">
                                                            <polygon id="t" transform="translate(4.571846, 6.538318) rotate(18.000000) translate(-4.571846, -6.538318) " points="3.5200069 4.4324962 3.51656956 8.64413937 5.62712224 8.6424207"></polygon>
                                                            <g id="t-link" transform="translate(4.222222, 6.315789) scale(-1, 1) translate(-4.222222, -6.315789) ">
                                                                <polygon id="t" transform="translate(4.571846, 6.538318) rotate(18.000000) translate(-4.571846, -6.538318) " points="3.5200069 4.4324962 3.51656956 8.64413937 5.62712224 8.6424207"></polygon>
                                                            </g>
                                                        </g>
                                                    </g>
                                                </g>
                                                <g id="a-link" transform="translate(10.555556, 10.526316) scale(-1, 1) translate(-10.555556, -10.526316) ">
                                                    <g id="a">
                                                        <g id="c-link" transform="translate(10.452230, 7.770491) rotate(72.000000) translate(-10.452230, -7.770491) translate(6.230008, 1.454701)">
                                                            <g id="c">
                                                                <polygon id="t" transform="translate(4.571846, 6.538318) rotate(18.000000) translate(-4.571846, -6.538318) " points="3.5200069 4.4324962 3.51656956 8.64413937 5.62712224 8.6424207"></polygon>
                                                                <g id="t-link" transform="translate(4.222222, 6.315789) scale(-1, 1) translate(-4.222222, -6.315789) ">
                                                                    <polygon id="t" transform="translate(4.571846, 6.538318) rotate(18.000000) translate(-4.571846, -6.538318) " points="3.5200069 4.4324962 3.51656956 8.64413937 5.62712224 8.6424207"></polygon>
                                                                </g>
                                                            </g>
                                                        </g>
                                                        <g id="c-link" transform="translate(9.685324, 10.124246) rotate(144.000000) translate(-9.685324, -10.124246) translate(5.463102, 3.808457)">
                                                            <g id="c">
                                                                <polygon id="t" transform="translate(4.571846, 6.538318) rotate(18.000000) translate(-4.571846, -6.538318) " points="3.5200069 4.4324962 3.51656956 8.64413937 5.62712224 8.6424207"></polygon>
                                                                <g id="t-link" transform="translate(4.222222, 6.315789) scale(-1, 1) translate(-4.222222, -6.315789) ">
                                                                    <polygon id="t" transform="translate(4.571846, 6.538318) rotate(18.000000) translate(-4.571846, -6.538318) " points="3.5200069 4.4324962 3.51656956 8.64413937 5.62712224 8.6424207"></polygon>
                                                                </g>
                                                            </g>
                                                        </g>
                                                    </g>
                                                </g>
                                            </g>
                                        </g>
                                        <g id="s-link" transform="translate(27.547770, 64.634362) rotate(72.000000) translate(-27.547770, -64.634362) translate(14.881103, 54.108046)">
                                            <g id="s">
                                                <g id="c" transform="translate(8.444444, 0.000000)">
                                                    <polygon id="t" transform="translate(4.571846, 6.538318) rotate(18.000000) translate(-4.571846, -6.538318) " points="3.5200069 4.4324962 3.51656956 8.64413937 5.62712224 8.6424207"></polygon>
                                                    <g id="t-link" transform="translate(4.222222, 6.315789) scale(-1, 1) translate(-4.222222, -6.315789) ">
                                                        <polygon id="t" transform="translate(4.571846, 6.538318) rotate(18.000000) translate(-4.571846, -6.538318) " points="3.5200069 4.4324962 3.51656956 8.64413937 5.62712224 8.6424207"></polygon>
                                                    </g>
                                                </g>
                                                <g id="a" transform="translate(4.222222, 0.000000)">
                                                    <g id="c-link" transform="translate(10.452230, 7.770491) rotate(72.000000) translate(-10.452230, -7.770491) translate(6.230008, 1.454701)">
                                                        <g id="c">
                                                            <polygon id="t" transform="translate(4.571846, 6.538318) rotate(18.000000) translate(-4.571846, -6.538318) " points="3.5200069 4.4324962 3.51656956 8.64413937 5.62712224 8.6424207"></polygon>
                                                            <g id="t-link" transform="translate(4.222222, 6.315789) scale(-1, 1) translate(-4.222222, -6.315789) ">
                                                                <polygon id="t" transform="translate(4.571846, 6.538318) rotate(18.000000) translate(-4.571846, -6.538318) " points="3.5200069 4.4324962 3.51656956 8.64413937 5.62712224 8.6424207"></polygon>
                                                            </g>
                                                        </g>
                                                    </g>
                                                    <g id="c-link" transform="translate(9.685324, 10.124246) rotate(144.000000) translate(-9.685324, -10.124246) translate(5.463102, 3.808457)">
                                                        <g id="c">
                                                            <polygon id="t" transform="translate(4.571846, 6.538318) rotate(18.000000) translate(-4.571846, -6.538318) " points="3.5200069 4.4324962 3.51656956 8.64413937 5.62712224 8.6424207"></polygon>
                                                            <g id="t-link" transform="translate(4.222222, 6.315789) scale(-1, 1) translate(-4.222222, -6.315789) ">
                                                                <polygon id="t" transform="translate(4.571846, 6.538318) rotate(18.000000) translate(-4.571846, -6.538318) " points="3.5200069 4.4324962 3.51656956 8.64413937 5.62712224 8.6424207"></polygon>
                                                            </g>
                                                        </g>
                                                    </g>
                                                </g>
                                                <g id="a-link" transform="translate(10.555556, 10.526316) scale(-1, 1) translate(-10.555556, -10.526316) ">
                                                    <g id="a">
                                                        <g id="c-link" transform="translate(10.452230, 7.770491) rotate(72.000000) translate(-10.452230, -7.770491) translate(6.230008, 1.454701)">
                                                            <g id="c">
                                                                <polygon id="t" transform="translate(4.571846, 6.538318) rotate(18.000000) translate(-4.571846, -6.538318) " points="3.5200069 4.4324962 3.51656956 8.64413937 5.62712224 8.6424207"></polygon>
                                                                <g id="t-link" transform="translate(4.222222, 6.315789) scale(-1, 1) translate(-4.222222, -6.315789) ">
                                                                    <polygon id="t" transform="translate(4.571846, 6.538318) rotate(18.000000) translate(-4.571846, -6.538318) " points="3.5200069 4.4324962 3.51656956 8.64413937 5.62712224 8.6424207"></polygon>
                                                                </g>
                                                            </g>
                                                        </g>
                                                        <g id="c-link" transform="translate(9.685324, 10.124246) rotate(144.000000) translate(-9.685324, -10.124246) translate(5.463102, 3.808457)">
                                                            <g id="c">
                                                                <polygon id="t" transform="translate(4.571846, 6.538318) rotate(18.000000) translate(-4.571846, -6.538318) " points="3.5200069 4.4324962 3.51656956 8.64413937 5.62712224 8.6424207"></polygon>
                                                                <g id="t-link" transform="translate(4.222222, 6.315789) scale(-1, 1) translate(-4.222222, -6.315789) ">
                                                                    <polygon id="t" transform="translate(4.571846, 6.538318) rotate(18.000000) translate(-4.571846, -6.538318) " points="3.5200069 4.4324962 3.51656956 8.64413937 5.62712224 8.6424207"></polygon>
                                                                </g>
                                                            </g>
                                                        </g>
                                                    </g>
                                                </g>
                                            </g>
                                        </g>
                                    </g>
                                </g>
                            </g>
                        </g>
                    </g>
                </g>
            </g>
        </g>
    </g>
</svg>