<svg id="Capa_1" data-name="Capa 1" xmlns="http://www.w3.org/2000/svg" viewBox="0 0 716.95 125.95"><defs><style>.cls-1{fill:#1f0047;}.cls-2{fill:#e2066f;}.cls-3{fill:#a0dbe8;}.cls-4{fill:#525353;}.cls-5{fill:#aa9678;}.cls-6{fill:#c0b098;}.cls-7{fill:#8b7460;}.cls-8{fill:none;}.cls-9{fill:#fff;}.cls-10{fill:#bbbcbd;}.cls-11{fill:#676a6a;}.cls-12{fill:#909393;}.cls-13{fill:#e2dddb;}.cls-14{fill:#fbb040;}.cls-15{fill:#9f2255;}</style></defs><title>logos_integraciones</title><g id="Calque_2" data-name="Calque 2"><g id="_Grupo_" data-name="&lt;Grupo&gt;"><g id="_Grupo_2" data-name="&lt;Grupo&gt;"><path id="_Trazado_compuesto_" data-name="&lt;Trazado compuesto&gt;" class="cls-1" d="M261,74.21a12.47,12.47,0,0,1-.11-2q0-8.76,5.82-13.67a19.51,19.51,0,0,1,12.87-4.91q9.29,0,12.92,7Zm45.06-8.33a21.21,21.21,0,0,0-7.79-16.82q-7.69-6.47-19.33-6.46a31.17,31.17,0,0,0-14,3.26A27.9,27.9,0,0,0,253.83,56a28.61,28.61,0,0,0-4.48,16q0,13.14,8.65,21.14a29.42,29.42,0,0,0,20.72,8q13.77,0,23.92-10.46l-7.05-7.8a19.56,19.56,0,0,1-15.75,7.48q-9.57,0-15.12-6.84l41.44-17.41Z"/><path id="_Trazado_" data-name="&lt;Trazado&gt;" class="cls-1" d="M235.63,46.12a24.67,24.67,0,0,0-7.85,8.76V43.45h-12v56.82h12V75.92q0-9.72,4.48-15.49t13.35-5.76h.64l-.1-12.07a18.86,18.86,0,0,0-10.52,3.52"/><path id="_Trazado_2" data-name="&lt;Trazado&gt;" class="cls-1" d="M348.92,71.33a32.77,32.77,0,0,0-5.39-3q-2.5-1.08-5.18-1.93t-6.14-1.7a26.9,26.9,0,0,1-5.39-1.82A4.25,4.25,0,0,1,324,58.83a5,5,0,0,1,2.67-4.64,13.74,13.74,0,0,1,6.94-1.55,26.78,26.78,0,0,1,15.06,4.59l4.49-8.86a33.21,33.21,0,0,0-18.59-5.77q-9.83,0-16,4.75A15.19,15.19,0,0,0,312.51,60q0,11.21,17.72,16c.29.07.71.21,1.29.42q11.31,3.42,11.32,7.69a5.84,5.84,0,0,1-2.35,4.76,10.08,10.08,0,0,1-6.41,1.86q-9.3,0-19.22-7.47l-5.77,9.29a38.91,38.91,0,0,0,11.8,6.3,40.48,40.48,0,0,0,12.87,2.24q9.18,0,15.06-4.86a16,16,0,0,0,5.87-13q0-8.12-5.77-12"/><path id="_Trazado_compuesto_2" data-name="&lt;Trazado compuesto&gt;" class="cls-1" d="M190.66,62.94q-3.79,4-14.26,4H161.77V37h12.81q10.26,0,15.06,3.21t4.81,11q0,7.74-3.79,11.74m8.91-30.81q-7.78-6.51-24.77-6.51H149.17v74.65h12.6V78.38H175q16.45,0,24.4-6.31t8-19.86q0-13.56-7.8-20.08"/><path id="_Trazado_3" data-name="&lt;Trazado&gt;" class="cls-1" d="M382.68,90.76a7.59,7.59,0,0,1-6-2.4,9.33,9.33,0,0,1-2.14-6.46V53.06h14.95V43.45H374.56V25.62h-12v56q0,9,5.39,14.26a18,18,0,0,0,13,5.28A20.37,20.37,0,0,0,395,95.46L390.05,87c-2.35,2.5-4.81,3.74-7.37,3.74"/><path id="_Trazado_compuesto_3" data-name="&lt;Trazado compuesto&gt;" class="cls-1" d="M437.42,85.37a15.86,15.86,0,0,1-12,5.18,17,17,0,0,1-12.28-5.13q-5.24-5.13-5.23-13.29a19.12,19.12,0,0,1,5.12-13.62,16.29,16.29,0,0,1,12.29-5.45,15.62,15.62,0,0,1,12.06,5.45,19.47,19.47,0,0,1,4.92,13.56q0,8.13-4.92,13.3m4.7-32.09Q434.86,42.6,423.65,42.6a27.1,27.1,0,0,0-19.44,7.9Q396,58.41,396,71.65T404,93a25.58,25.58,0,0,0,18.8,8.11,23.72,23.72,0,0,0,10.63-2.62,22.76,22.76,0,0,0,8.7-7.52v9.29h12V43.45h-12v9.83Z"/><path id="_Trazado_compuesto_4" data-name="&lt;Trazado compuesto&gt;" class="cls-2" d="M631.38,85.26a18.57,18.57,0,0,1-25.73,0q-5.08-5.17-5.08-13.4t5.08-13.4a18.57,18.57,0,0,1,25.73,0q5.07,5.17,5.08,13.4t-5.08,13.4M618.51,42.6q-12.81,0-21.35,8.49a28.14,28.14,0,0,0-8.55,20.77,28.14,28.14,0,0,0,8.55,20.77q8.54,8.49,21.35,8.49t21.36-8.49a28.14,28.14,0,0,0,8.55-20.77,28.14,28.14,0,0,0-8.55-20.77q-8.54-8.49-21.36-8.49"/><path id="_Trazado_compuesto_5" data-name="&lt;Trazado compuesto&gt;" class="cls-2" d="M696.35,85.32a17,17,0,0,1-12.28,5.12,15.83,15.83,0,0,1-12-5.18Q667.19,80.09,667.2,72a19.27,19.27,0,0,1,4.91-13.51,15.68,15.68,0,0,1,12.07-5.4,16.34,16.34,0,0,1,12.28,5.4A18.87,18.87,0,0,1,701.58,72q0,8.17-5.23,13.3m9.08-34.82a27,27,0,0,0-19.54-7.9q-11.43,0-18.48,10.79V43.45h-12V121h12V91.73q8.55,9.39,19.28,9.39t18.79-8.22q8.07-8.22,8.07-21.36t-8.12-21"/><path id="_Trazado_4" data-name="&lt;Trazado&gt;" class="cls-2" d="M560.77,42.6a22,22,0,0,0-11.17,3,18.94,18.94,0,0,0-7.74,8.22V21.13h-12v79.14h12V69.51q0-7.91,4.6-12a15.63,15.63,0,0,1,10.78-4.12q13,0,13,15.7v31.19h12V65.45q0-11.1-5.93-17T560.77,42.6"/><path id="_Trazado_5" data-name="&lt;Trazado&gt;" class="cls-2" d="M515.6,64.38q-5.82-5-17.3-7.79t-15-5.18a7.88,7.88,0,0,1-3.52-6.94,7.48,7.48,0,0,1,3.52-6.78,16.51,16.51,0,0,1,9-2.25,34.4,34.4,0,0,1,11.16,1.93,25.37,25.37,0,0,1,9,4.91l6.72-9.51A37.23,37.23,0,0,0,507,26.15a44.82,44.82,0,0,0-14.2-2.35q-11.12,0-18.64,5.61t-7.53,16q0,10.37,6.62,15.38a28.29,28.29,0,0,0,7.58,4.33,105.85,105.85,0,0,0,12.5,3.63q8.22,2,11.59,4.38a7.79,7.79,0,0,1,3.36,6.73,8.19,8.19,0,0,1-3.58,6.94q-3.57,2.61-9.66,2.61-12.18,0-23.5-9.82l-7.9,9.5a45.38,45.38,0,0,0,31.08,12.07q12,0,19.33-6.09a19.58,19.58,0,0,0,7.37-15.85q0-9.78-5.82-14.8"/></g><path id="_Trazado_6" data-name="&lt;Trazado&gt;" class="cls-3" d="M40.38,94c.93-.42,1.87-.8,2.82-1.15s2.14-.78,3.24-1.11c1.36-.41,2.73-.78,4.12-1.08a51.76,51.76,0,0,1,5.69-.88q-1.62,5.06-3.55,10.06c.06.64.09,1.29.11,1.94a41.31,41.31,0,0,1,16,0c0-.65,0-1.3.1-1.94-1.28-3.33-2.47-6.69-3.54-10.06a51.58,51.58,0,0,1,5.68.88c1.39.3,2.77.67,4.13,1.08,1.09.33,2.17.71,3.24,1.11s1.89.73,2.81,1.15A50.25,50.25,0,0,1,98.7,106.88a58,58,0,1,0-75.81,0A50.22,50.22,0,0,1,40.38,94Z"/><path id="_Trazado_7" data-name="&lt;Trazado&gt;" class="cls-4" d="M44.21,104.47a40.27,40.27,0,0,1,8.6-2.72c0-.65-.05-1.3-.11-1.94q1.94-5,3.55-10.06a51.76,51.76,0,0,0-5.69.88c-1.39.3-2.76.67-4.12,1.08-1.1.33-2.17.71-3.24,1.11l4.23,1Z"/><path id="_Trazado_8" data-name="&lt;Trazado&gt;" class="cls-4" d="M34.23,110.73a32.6,32.6,0,0,0,.17-3.28,1.2,1.2,0,0,1,1.2-1.2h1.06L40.38,94a50.34,50.34,0,0,0-17.49,12.91,58.91,58.91,0,0,0,8.75,6.25C32.47,112.29,33.34,111.49,34.23,110.73Z"/><path id="_Trazado_9" data-name="&lt;Trazado&gt;" class="cls-4" d="M81.21,94l3.73,12.28h1a1.2,1.2,0,0,1,1.2,1.2c0,1.1.07,2.19.17,3.27.9.77,1.76,1.57,2.59,2.4a57.63,57.63,0,0,0,8.75-6.24A50.25,50.25,0,0,0,81.21,94Z"/><path id="_Trazado_10" data-name="&lt;Trazado&gt;" class="cls-4" d="M74.17,93.84l4.23-1c-1.07-.4-2.15-.78-3.24-1.11-1.36-.41-2.74-.78-4.13-1.08a51.58,51.58,0,0,0-5.68-.88c1.07,3.37,2.26,6.73,3.54,10.06-.06.64-.09,1.29-.1,1.94a40.45,40.45,0,0,1,8.6,2.72Z"/><path id="_Trazado_11" data-name="&lt;Trazado&gt;" d="M60.8,106.25H69a32.4,32.4,0,0,1-.19-4.5,41.31,41.31,0,0,0-16,0,32.4,32.4,0,0,1-.19,4.5Z"/><path id="_Trazado_12" data-name="&lt;Trazado&gt;" d="M31.64,113.12c.68.4,1.36.78,2,1.15a32.52,32.52,0,0,0,.54-3.54C33.34,111.49,32.47,112.29,31.64,113.12Z"/><path id="_Trazado_13" data-name="&lt;Trazado&gt;" d="M43.67,106.25h8.95a32.4,32.4,0,0,0,.19-4.5,40.27,40.27,0,0,0-8.6,2.72Z"/><path id="_Trazado_14" data-name="&lt;Trazado&gt;" d="M87.36,110.73a32.55,32.55,0,0,0,.55,3.54c.69-.37,1.37-.75,2-1.15C89.12,112.29,88.26,111.49,87.36,110.73Z"/><path id="_Trazado_15" data-name="&lt;Trazado&gt;" d="M77.93,106.25l-.54-1.78a40.45,40.45,0,0,0-8.6-2.72,32.4,32.4,0,0,0,.19,4.5Z"/><path id="_Trazado_16" data-name="&lt;Trazado&gt;" class="cls-5" d="M43.67,106.25l.54-1.78,3.22-10.63-4.23-1c-1,.35-1.89.73-2.82,1.15l-3.72,12.28h7Z"/><path id="_Trazado_17" data-name="&lt;Trazado&gt;" class="cls-5" d="M77.39,104.47l.54,1.78h7L81.21,94c-.92-.42-1.86-.8-2.81-1.15l-4.23,1Z"/><path id="_Trazado_18" data-name="&lt;Trazado&gt;" class="cls-6" d="M36.78,108.73l.11-.08h-.1S36.78,108.7,36.78,108.73Z"/><path id="_Trazado_19" data-name="&lt;Trazado&gt;" class="cls-6" d="M60.8,108.65H36.89l-.11.08a35.71,35.71,0,0,1-.87,6.65A57.75,57.75,0,0,0,60.8,121Z"/><path id="_Trazado_20" data-name="&lt;Trazado&gt;" class="cls-5" d="M84.81,108.65H84.7l.11.08Z"/><path id="_Trazado_21" data-name="&lt;Trazado&gt;" class="cls-5" d="M84.7,108.65H60.8V121a57.75,57.75,0,0,0,24.89-5.61,35.71,35.71,0,0,1-.88-6.65Z"/><path id="_Trazado_22" data-name="&lt;Trazado&gt;" class="cls-7" d="M87.36,110.73c-.1-1.09-.17-2.18-.17-3.28a1.2,1.2,0,0,0-1.2-1.2H35.6a1.2,1.2,0,0,0-1.2,1.2,32.6,32.6,0,0,1-.17,3.28,32.52,32.52,0,0,1-.54,3.54c.73.38,1.47.76,2.21,1.12a35.11,35.11,0,0,0,.88-6.66s0,0,0-.08h48v.08a35.11,35.11,0,0,0,.88,6.66c.75-.36,1.48-.74,2.21-1.12A35.16,35.16,0,0,1,87.36,110.73Z"/><g id="_Grupo_3" data-name="&lt;Grupo&gt;"><path id="_Trazado_23" data-name="&lt;Trazado&gt;" class="cls-8" d="M80.33,54.12h0v0a47.37,47.37,0,0,1,2,6.37c0,.15,0,.31,0,.47s-.07.44-.11.62q.09-.42.18-1a46.35,46.35,0,0,0-2-6.46v0Z"/><path id="_Trazado_24" data-name="&lt;Trazado&gt;" class="cls-8" d="M97.23,67.24l-.09.06Z"/><path id="_Trazado_25" data-name="&lt;Trazado&gt;" class="cls-8" d="M97.61,67l-.13.12Z"/><path id="_Trazado_26" data-name="&lt;Trazado&gt;" class="cls-8" d="M78.59,52.6a34.45,34.45,0,0,0-4.21-3.06h0A34.45,34.45,0,0,1,78.59,52.6Z"/><path id="_Trazado_27" data-name="&lt;Trazado&gt;" class="cls-8" d="M92.05,66.51l0,0Z"/><path id="_Trazado_28" data-name="&lt;Trazado&gt;" class="cls-8" d="M94.51,69.57l.11.15Z"/><path id="_Trazado_29" data-name="&lt;Trazado&gt;" class="cls-8" d="M82.13,61.69c0,.17-.08.33-.12.45C82.05,62,82.09,61.86,82.13,61.69Z"/><path id="_Trazado_30" data-name="&lt;Trazado&gt;" class="cls-8" d="M76.44,82.86a15.39,15.39,0,0,0-1.79,4.2,15.39,15.39,0,0,1,1.79-4.2l.86-1.44-.85,1.43Z"/><path id="_Trazado_31" data-name="&lt;Trazado&gt;" class="cls-8" d="M80.34,54.11l.15-.31v0a2.59,2.59,0,0,0-.14.29c.35.3.69.61,1,.92C81,54.72,80.69,54.41,80.34,54.11Z"/><path id="_Trazado_32" data-name="&lt;Trazado&gt;" class="cls-8" d="M68.82,61.73h0Z"/><path id="_Trazado_33" data-name="&lt;Trazado&gt;" class="cls-8" d="M72.31,48.36l-.18-.1Z"/><path id="_Trazado_34" data-name="&lt;Trazado&gt;" class="cls-8" d="M72.61,48.52l-.25-.14Z"/><path id="_Trazado_35" data-name="&lt;Trazado&gt;" class="cls-8" d="M74.51,53.2v0Z"/><path id="_Trazado_36" data-name="&lt;Trazado&gt;" class="cls-8" d="M68.62,61.23h0Z"/><path id="_Trazado_37" data-name="&lt;Trazado&gt;" class="cls-8" d="M96.87,72.64c.08.09.15.19.22.28A3,3,0,0,0,96.87,72.64Z"/><path id="_Trazado_38" data-name="&lt;Trazado&gt;" class="cls-8" d="M74.5,55c0,.61,0,1.21-.06,1.82C74.47,56.24,74.49,55.64,74.5,55Z"/><path id="_Trazado_39" data-name="&lt;Trazado&gt;" class="cls-8" d="M69,62.26h0Z"/><path id="_Trazado_40" data-name="&lt;Trazado&gt;" class="cls-8" d="M74.27,49.47,73,48.74Z"/><path id="_Trazado_41" data-name="&lt;Trazado&gt;" class="cls-8" d="M73,48.73l-.36-.21Z"/><path id="_Trazado_42" data-name="&lt;Trazado&gt;" class="cls-8" d="M74.36,49.52h0l0,0Z"/><path id="_Trazado_43" data-name="&lt;Trazado&gt;" class="cls-8" d="M98.81,63.62a.57.57,0,0,0,0-.13v0a.49.49,0,0,0,0-.12.66.66,0,0,1,0,.14A.76.76,0,0,1,98.81,63.62Z"/><path id="_Trazado_44" data-name="&lt;Trazado&gt;" class="cls-8" d="M89.31,63.26l.17.19h0l-.18-.19Z"/><path id="_Trazado_45" data-name="&lt;Trazado&gt;" class="cls-8" d="M81.37,55c.78.71,1.53,1.44,2.28,2.17C82.9,56.47,82.15,55.74,81.37,55Z"/><path id="_Trazado_46" data-name="&lt;Trazado&gt;" class="cls-8" d="M96.49,59.47a1.41,1.41,0,0,1,.41.07A1.41,1.41,0,0,0,96.49,59.47Z"/><path id="_Trazado_47" data-name="&lt;Trazado&gt;" class="cls-8" d="M94.26,62.35a1.55,1.55,0,0,0,0,.21A1.55,1.55,0,0,1,94.26,62.35Z"/><path id="_Trazado_48" data-name="&lt;Trazado&gt;" class="cls-8" d="M97,59.58a1.91,1.91,0,0,1,.28.15A1.91,1.91,0,0,0,97,59.58Z"/><path id="_Trazado_49" data-name="&lt;Trazado&gt;" class="cls-8" d="M97.92,60.32l.09.13Z"/><path id="_Trazado_50" data-name="&lt;Trazado&gt;" class="cls-8" d="M98.77,62.64v0a.08.08,0,0,1,0,0s0,0,0,.07Z"/><path id="_Trazado_51" data-name="&lt;Trazado&gt;" class="cls-8" d="M98.77,64.33v0h0s0,0,0,.08A.11.11,0,0,1,98.77,64.33Z"/><path id="_Trazado_52" data-name="&lt;Trazado&gt;" class="cls-8" d="M95,60.45l.09-.13Z"/><path id="_Trazado_53" data-name="&lt;Trazado&gt;" class="cls-8" d="M96.07,59.54a1.48,1.48,0,0,1,.42-.07A1.48,1.48,0,0,0,96.07,59.54Z"/><path id="_Trazado_54" data-name="&lt;Trazado&gt;" class="cls-8" d="M85.76,59.36c-.35-.38-.72-.75-1.08-1.12Z"/><path id="_Trazado_55" data-name="&lt;Trazado&gt;" class="cls-8" d="M96.49,46.78h0v5.38l-2.07,9.46s0,.05,0,.08a.14.14,0,0,0,0-.06h0l2.07-9.46v-5.4Z"/><path id="_Trazado_56" data-name="&lt;Trazado&gt;" class="cls-8" d="M87.7,61.44l-.57-.62Z"/><path id="_Trazado_57" data-name="&lt;Trazado&gt;" class="cls-8" d="M98.55,61.64c0,.08.06.15.08.22h0a1.87,1.87,0,0,0-.07-.22Z"/><path id="_Trazado_58" data-name="&lt;Trazado&gt;" class="cls-8" d="M94.15,63.45h0s0-.07,0-.11S94.15,63.41,94.15,63.45Z"/><path id="_Trazado_59" data-name="&lt;Trazado&gt;" class="cls-8" d="M95.67,59.73a1.47,1.47,0,0,1,.28-.14A1,1,0,0,0,95.67,59.73Z"/><path id="_Trazado_60" data-name="&lt;Trazado&gt;" class="cls-8" d="M95.25,60.09a2,2,0,0,1,.3-.28A2,2,0,0,0,95.25,60.09Z"/><path id="_Trazado_61" data-name="&lt;Trazado&gt;" class="cls-8" d="M98.63,65.07h0c-.06.21-.12.4-.19.59a5.8,5.8,0,0,0,.19-.59Z"/><path id="_Trazado_62" data-name="&lt;Trazado&gt;" class="cls-8" d="M27.89,61.68c.08-.14.17-.27.26-.41C28.06,61.41,28,61.54,27.89,61.68Z"/><path id="_Trazado_63" data-name="&lt;Trazado&gt;" class="cls-8" d="M97.43,59.81a3.84,3.84,0,0,1,.3.28A3.84,3.84,0,0,0,97.43,59.81Z"/><path id="_Trazado_64" data-name="&lt;Trazado&gt;" class="cls-8" d="M29.53,59.26l.13-.18Z"/><path id="_Trazado_65" data-name="&lt;Trazado&gt;" class="cls-8" d="M69.1,63.42h0v0Z"/><path id="_Trazado_66" data-name="&lt;Trazado&gt;" class="cls-8" d="M25.37,66.3l-.3.64Z"/><path id="_Trazado_67" data-name="&lt;Trazado&gt;" class="cls-8" d="M24.1,69.27a.3.3,0,0,0,0,.1A.3.3,0,0,1,24.1,69.27Z"/><polygon id="_Trazado_68" data-name="&lt;Trazado&gt;" class="cls-8" points="97.93 48.15 97.92 48.15 97.92 48.15 97.93 48.15"/><path id="_Trazado_69" data-name="&lt;Trazado&gt;" class="cls-8" d="M35.56,52.75Z"/><path id="_Trazado_70" data-name="&lt;Trazado&gt;" class="cls-8" d="M33.29,54.86l.35-.34Z"/><path id="_Trazado_71" data-name="&lt;Trazado&gt;" class="cls-8" d="M31.25,57.1l.35-.42Z"/><path id="_Trazado_72" data-name="&lt;Trazado&gt;" class="cls-8" d="M98.56,61.64l-2.07-9.46Z"/><path id="_Trazado_73" data-name="&lt;Trazado&gt;" class="cls-8" d="M62.51,68.81l-.12,0Z"/><path id="_Trazado_74" data-name="&lt;Trazado&gt;" class="cls-8" d="M63.06,68.9l-.13,0Z"/><path id="_Trazado_75" data-name="&lt;Trazado&gt;" class="cls-8" d="M26.64,63.8l-.38.72Z"/><path id="_Trazado_76" data-name="&lt;Trazado&gt;" class="cls-8" d="M61,68.23Z"/><path id="_Trazado_77" data-name="&lt;Trazado&gt;" class="cls-8" d="M62,68.67l-.07,0Z"/><path id="_Trazado_78" data-name="&lt;Trazado&gt;" class="cls-8" d="M61.46,68.48l0,0Z"/><path id="_Trazado_79" data-name="&lt;Trazado&gt;" class="cls-8" d="M58.57,65.52v0Z"/><path id="_Trazado_80" data-name="&lt;Trazado&gt;" class="cls-8" d="M58.31,62.21l0,.12Z"/><path id="_Trazado_81" data-name="&lt;Trazado&gt;" class="cls-8" d="M58.88,60.76v0Z"/><path id="_Trazado_82" data-name="&lt;Trazado&gt;" class="cls-8" d="M60.69,58.85h0Z"/><path id="_Trazado_83" data-name="&lt;Trazado&gt;" class="cls-8" d="M58.45,61.71l0,.08Z"/><path id="_Trazado_84" data-name="&lt;Trazado&gt;" class="cls-8" d="M58.64,61.23a.17.17,0,0,1,0,.05A.17.17,0,0,0,58.64,61.23Z"/><path id="_Trazado_85" data-name="&lt;Trazado&gt;" class="cls-8" d="M64.71,58.1h0Z"/><path id="_Trazado_86" data-name="&lt;Trazado&gt;" class="cls-8" d="M65.7,58.4h0Z"/><path id="_Trazado_87" data-name="&lt;Trazado&gt;" class="cls-8" d="M61.6,58.38h0Z"/><path id="_Trazado_88" data-name="&lt;Trazado&gt;" class="cls-8" d="M62.6,58.09h0Z"/><path id="_Trazado_89" data-name="&lt;Trazado&gt;" class="cls-8" d="M69.06,62.81h0Z"/><path id="_Trazado_90" data-name="&lt;Trazado&gt;" class="cls-8" d="M98.09,66.37a1.74,1.74,0,0,1-.19.26A1.74,1.74,0,0,0,98.09,66.37Z"/><path id="_Trazado_91" data-name="&lt;Trazado&gt;" class="cls-8" d="M58.21,62.76a.59.59,0,0,1,0,.13A.59.59,0,0,0,58.21,62.76Z"/><path id="_Trazado_92" data-name="&lt;Trazado&gt;" class="cls-8" d="M58.27,64.52v0Z"/><path id="_Trazado_93" data-name="&lt;Trazado&gt;" class="cls-8" d="M98.38,65.8l-.18.38Z"/><path id="_Trazado_94" data-name="&lt;Trazado&gt;" class="cls-4" d="M77.42,98c-.18-.21-.36-.42-.55-.67.19.25.37.46.55.67Z"/><path id="_Trazado_95" data-name="&lt;Trazado&gt;" class="cls-5" d="M78.75,99.29v0A10.47,10.47,0,0,1,77.42,98h0A10.47,10.47,0,0,0,78.75,99.29Z"/><circle id="_Trazado_96" data-name="&lt;Trazado&gt;" class="cls-9" cx="96.47" cy="46.78"/><path id="_Trazado_97" data-name="&lt;Trazado&gt;" class="cls-9" d="M98.82,63.49v0h0Z"/><path id="_Trazado_98" data-name="&lt;Trazado&gt;" class="cls-10" d="M99.44,50h0l0,0h0a22,22,0,0,0-1.49-1.84h0a9.59,9.59,0,0,0-.7-.72l-.27-.25-.45-.4h0v5.39l2.07,9.47h0a1.41,1.41,0,0,1,.06.22l1.44,1.6h1.51c0-.14,0-.28,0-.42h0a40.58,40.58,0,0,0-2.06-12.77h0C99.49,50.18,99.47,50.1,99.44,50Z"/><path id="_Trazado_99" data-name="&lt;Trazado&gt;" class="cls-10" d="M98.82,63.47v0Z"/><path id="_Trazado_100" data-name="&lt;Trazado&gt;" class="cls-11" d="M98.76,62.57a.08.08,0,0,0,0,0v0h0a5.12,5.12,0,0,1,0,.69.49.49,0,0,1,0,.12v0a.57.57,0,0,1,0,.13,5.07,5.07,0,0,1,0,.68h0v0a.11.11,0,0,0,0,0c0,.24-.08.47-.13.69h0l1.42-1.58-1.44-1.61h0C98.68,62.09,98.73,62.32,98.76,62.57Z"/><path id="_Trazado_compuesto_6" data-name="&lt;Trazado compuesto&gt;" d="M98.76,64.38s0,0,0-.08a5.07,5.07,0,0,0,0-.68.76.76,0,0,0,0-.15v-.14c0-.24,0-.47,0-.69,0,0,0,0,0-.07,0-.25-.08-.48-.13-.71,0-.07,0-.14-.08-.22A4.49,4.49,0,0,0,98,60.45l-.09-.13-.19-.23a3.84,3.84,0,0,0-.3-.28l-.12-.08a1.83,1.83,0,0,0-.28-.14l-.13-.05a1.41,1.41,0,0,0-.41-.07,1.48,1.48,0,0,0-.42.07l-.12.05a1.47,1.47,0,0,0-.28.14l-.12.08a2,2,0,0,0-.3.28,2.11,2.11,0,0,0-.19.23l-.09.13a4.84,4.84,0,0,0-.55,1.19s0,0,0,.06a5.7,5.7,0,0,0-.14.65,1.55,1.55,0,0,0,0,.21,4.93,4.93,0,0,0-.06.78s0,.07,0,.11h0c0,2.21,1,4,2.34,4a1.46,1.46,0,0,0,.64-.15l.09-.06a1.32,1.32,0,0,0,.25-.16l.13-.12a2.36,2.36,0,0,0,.29-.33,1.74,1.74,0,0,0,.19-.26l.11-.19.18-.38.06-.14c.07-.19.13-.38.19-.59S98.72,64.62,98.76,64.38Zm-2.19-1.44c-.48,0-.87-.68-.87-1.5s.39-1.51.87-1.51.88.68.88,1.51S97.06,62.94,96.57,62.94Z"/><ellipse id="_Trazado_101" data-name="&lt;Trazado&gt;" class="cls-9" cx="96.57" cy="61.44" rx="0.88" ry="1.5"/><path id="_Trazado_102" data-name="&lt;Trazado&gt;" class="cls-12" d="M94.42,61.64h0A4.84,4.84,0,0,1,95,60.45l.09-.13a2.11,2.11,0,0,1,.19-.23,2,2,0,0,1,.3-.28l.12-.08a1,1,0,0,1,.28-.14l.12-.05a1.48,1.48,0,0,1,.42-.07,1.41,1.41,0,0,1,.41.07l.13.05a1.22,1.22,0,0,1,.28.14l.12.08a3.84,3.84,0,0,1,.3.28l.19.23.09.13a4.49,4.49,0,0,1,.54,1.19h0l-2.06-9.46-2.07,9.46Z"/><path id="_Trazado_compuesto_7" data-name="&lt;Trazado compuesto&gt;" d="M69.1,63.38c0-.19,0-.38,0-.56h0a5.07,5.07,0,0,0-.09-.54h0a4.42,4.42,0,0,0-.14-.52h0c-.06-.17-.12-.33-.19-.49h0a4.16,4.16,0,0,0-.24-.47h0a5.47,5.47,0,0,0-1-1.26,5.65,5.65,0,0,0-1.7-1.1h0a4.71,4.71,0,0,0-1-.29h0a6,6,0,0,0-1.05-.1,5.8,5.8,0,0,0-1,.1h0a6.26,6.26,0,0,0-1,.29h0a5.76,5.76,0,0,0-.89.46h0a6.09,6.09,0,0,0-.8.62v0h0a5.25,5.25,0,0,0-1,1.26v0a3.68,3.68,0,0,0-.23.44s0,0,0,.05-.12.29-.17.44l0,.08c0,.14-.08.28-.11.42l0,.12c0,.14-.05.28-.07.43a.69.69,0,0,1,0,.13,5.3,5.3,0,0,0,0,.57,5.19,5.19,0,0,0,.11,1.05v0a5.3,5.3,0,0,0,.3,1v0a5.71,5.71,0,0,0,1.12,1.7,5.57,5.57,0,0,0,1.27,1h0c.15.08.3.16.46.23h0a4.13,4.13,0,0,0,.45.17l.07,0,.42.11.12,0,.42.07.13,0a5.44,5.44,0,0,0,.57,0,5.62,5.62,0,0,0,2.13-.43,5.23,5.23,0,0,0,.93-.51,5.41,5.41,0,0,0,1.47-1.47,5.61,5.61,0,0,0,.51-.93,5.44,5.44,0,0,0,.43-2.13v0h0v0Zm-5.47-.64a2.06,2.06,0,1,1,2.05-2.05A2.05,2.05,0,0,1,63.63,62.74Z"/><circle id="_Trazado_103" data-name="&lt;Trazado&gt;" class="cls-9" cx="63.63" cy="60.69" r="2.05"/><path id="_Trazado_104" data-name="&lt;Trazado&gt;" class="cls-10" d="M59.87,59.5h0v0h0L63.66,48V45.23a32.1,32.1,0,0,0-6.46-.67c-.74,0-1.47,0-2.2.09l-.31,0a32.23,32.23,0,0,0-10.95,2.84,35,35,0,0,0-8.18,5.24h0q-1,.86-1.92,1.77l-.35.34c-.58.59-1.15,1.2-1.69,1.82l-.35.42c-.55.64-1.09,1.3-1.59,2l-.13.17c-.48.66-.94,1.33-1.38,2-.09.13-.18.26-.26.4-.36.57-.69,1.15-1,1.73H44Z"/><path id="_Trazado_105" data-name="&lt;Trazado&gt;" class="cls-13" d="M74.35,58.2q.06-.68.09-1.35c0-.61,0-1.21.06-1.82s0-1,0-1.42V53.2c0-1.22-.06-2.44-.13-3.66h0l0,0,0,0L73,48.74l0,0-.36-.2h0l-.25-.14,0,0-.18-.09c-.78-.41-1.59-.79-2.41-1.14a43.35,43.35,0,0,0-6.06-1.89V48L67.4,59.49h0a5.47,5.47,0,0,1,1,1.26h0a4.16,4.16,0,0,1,.24.47h0c.07.16.13.32.19.49h0a4.42,4.42,0,0,1,.14.52h0a5.07,5.07,0,0,1,.09.54h0c0,.18,0,.37,0,.56h0v0h4.57a50.56,50.56,0,0,0,.66-5.07S74.35,58.25,74.35,58.2Z"/><path id="_Trazado_106" data-name="&lt;Trazado&gt;" class="cls-14" d="M80.33,54.12v0Z"/><path id="_Trazado_107" data-name="&lt;Trazado&gt;" class="cls-14" d="M69.13,79.85c1-1,2-2,3-3,.56-.57,1.1-1.14,1.62-1.7,3.82-4.15,6.62-8,8.31-13,0-.12.08-.28.12-.45l0-.08c0-.19.08-.4.11-.63s0-.32,0-.47a48.86,48.86,0,0,0-2-6.37v0l0,0-.42-.39c-.43-.39-.87-.78-1.32-1.15a33.59,33.59,0,0,0-4.2-3.06h0c.07,1.22.12,2.44.13,3.66v.41c0,.47,0,.94,0,1.42s0,1.21-.06,1.82q0,.67-.09,1.35s0,.09,0,.14a50.56,50.56,0,0,1-.66,5.07L73.14,66c-1.12,4.55-3.4,8.67-5.27,12.93-.5,1.13-1,2.27-1.38,3.43l-.12.33,1.5-1.53Z"/><path id="_Trazado_108" data-name="&lt;Trazado&gt;" class="cls-12" d="M59.89,59.47h0a6,6,0,0,1,.8-.61h0a5.81,5.81,0,0,1,.89-.47h0a5.29,5.29,0,0,1,1-.28h0a5.8,5.8,0,0,1,1-.1,5.19,5.19,0,0,1,1.05.11h0a6.38,6.38,0,0,1,1,.29h0a5.53,5.53,0,0,1,1.7,1.1h0L63.66,48Z"/><path id="_Trazado_109" data-name="&lt;Trazado&gt;" class="cls-11" d="M58.57,65.52a5.3,5.3,0,0,1-.3-1v0a5.37,5.37,0,0,1-.11-1.06,5.44,5.44,0,0,1,0-.57.59.59,0,0,0,0-.13c0-.14,0-.29.07-.43l0-.12c0-.14.07-.28.11-.42l0-.08c0-.15.11-.29.17-.44a.08.08,0,0,0,0,0,3.17,3.17,0,0,1,.23-.45v0a5.25,5.25,0,0,1,1-1.26h0L44,63.41h0l15.7,3.83a5.71,5.71,0,0,1-1.12-1.7Z"/><path id="_Trazado_110" data-name="&lt;Trazado&gt;" class="cls-13" d="M94.22,62.56a1.3,1.3,0,0,1,0-.21,5.7,5.7,0,0,1,.14-.65s0-.05,0-.08l2.07-9.46v-5.4A8.42,8.42,0,0,0,91.1,44.6a9.28,9.28,0,0,0-6.25,2.94,23.46,23.46,0,0,0-4.36,6.26l-.15.31c.35.3.69.61,1,.92.78.71,1.53,1.43,2.28,2.17.35.34.69.69,1,1l1.08,1.12c.46.48.92,1,1.37,1.46.19.2.38.41.56.62.55.6,1.09,1.21,1.62,1.82h0l.18.19h4.66s0-.07,0-.11A4.93,4.93,0,0,1,94.22,62.56Z"/><path id="_Trazado_111" data-name="&lt;Trazado&gt;" class="cls-13" d="M80.34,54.14v0h0v0l0,0Z"/><path id="_Trazado_112" data-name="&lt;Trazado&gt;" class="cls-4" d="M24.06,69.37a.3.3,0,0,1,0-.1c.3-.79.63-1.56,1-2.33l.3-.64c.28-.6.58-1.2.89-1.78.12-.24.25-.48.38-.72s.15-.26.23-.39c.33-.58.66-1.17,1-1.74l.26-.4c.44-.68.9-1.36,1.38-2l.13-.18c.5-.68,1-1.34,1.58-2l.36-.41c.54-.62,1.11-1.23,1.69-1.82l.35-.34c.62-.61,1.26-1.21,1.92-1.77h0a20.76,20.76,0,0,1,30.85-12,21.22,21.22,0,0,1,7.79,8.48l0,0c0,.09.1.17.14.26h0a33.9,33.9,0,0,1,4.21,3.05c.45.38.89.77,1.32,1.16l.42.39v0h0l.15-.29c1.33-8.4,5-14.45,9.4-14.45,3.29,0,6.21,3.43,8,8.72l0,.06h0A20.2,20.2,0,0,1,99.41,50h0l0,0h0a1.55,1.55,0,0,1,.07.23h0L99.44,50A40.71,40.71,0,0,0,22.18,75.69v0c.26-1.19.57-2.38.93-3.56C23.4,71.18,23.71,70.27,24.06,69.37Z"/><path id="_Trazado_113" data-name="&lt;Trazado&gt;" class="cls-9" d="M100.06,63.47l-1.42,1.58h0v0a5.8,5.8,0,0,1-.19.59l-.06.14-.18.38-.11.19a2.61,2.61,0,0,1-.19.27,2.26,2.26,0,0,1-.29.32l-.13.12a1.32,1.32,0,0,1-.25.16l-.09.06a1.46,1.46,0,0,1-.64.15c-1.29,0-2.34-1.79-2.34-4H89.48c.87,1,1.72,2,2.57,3.06l0,0c.82,1,1.63,2,2.43,3l.11.15c.76,1,1.51,1.94,2.26,2.92l.21.28c.79,1,1.57,2.07,2.34,3.11l0,0a41,41,0,0,0,2.13-12.6h-1.51Z"/><path id="_Trazado_114" data-name="&lt;Trazado&gt;" d="M54.69,44.67l.31,0c.73,0,1.46-.08,2.2-.08a32.1,32.1,0,0,1,6.46.67v0a43.35,43.35,0,0,1,6.06,1.89c.82.35,1.62.73,2.41,1.14l.18.09,0,0,.25.14h0l.36.2,0,0,1.27.73,0,0,0,0h0c0-.09-.09-.17-.14-.26l0,0a21.22,21.22,0,0,0-7.79-8.48,20.76,20.76,0,0,0-30.85,12,35.1,35.1,0,0,1,8.17-5.24A32.34,32.34,0,0,1,54.69,44.67Z"/><path id="_Trazado_115" data-name="&lt;Trazado&gt;" d="M84.85,47.54A9.33,9.33,0,0,1,91.1,44.6a8.42,8.42,0,0,1,5.39,2.16v0h0c.15.12.3.26.45.4s.18.15.27.24.47.47.7.72h0l0-.06c-1.81-5.28-4.73-8.72-8-8.72-4.37,0-8.07,6.05-9.4,14.45h0A23.36,23.36,0,0,1,84.85,47.54Z"/><path id="_Trazado_116" data-name="&lt;Trazado&gt;" class="cls-9" d="M46.3,101l1.12.4a40.73,40.73,0,0,0,28.66-.65l.73-.32c.4-.17.8-.34,1.19-.53l1-.49-.25,0h0a16.51,16.51,0,0,1-4.33,0c-8.38-1.2-10.23-5.24-10-9.45a19,19,0,0,1-1.84-1.19A54.17,54.17,0,0,1,52.4,79.11a54.24,54.24,0,0,0,12.39,6.71l.47.17c.34-1.2.75-2.34,1.11-3.35h0l.12-.33c.41-1.16.88-2.3,1.38-3.43C69.74,74.62,72,70.5,73.14,66l.54-2.54H69.1v0a5.4,5.4,0,0,1-.43,2.13,5.91,5.91,0,0,1-.5.93A5.78,5.78,0,0,1,66.69,68a5.91,5.91,0,0,1-.93.5,5.37,5.37,0,0,1-2.13.43,5.44,5.44,0,0,1-.57,0l-.13,0-.42-.07-.12,0a3.25,3.25,0,0,1-.42-.11l-.07,0-.44-.16,0,0a4,4,0,0,1-.46-.23h0a5.57,5.57,0,0,1-1.27-1L44,63.41H26.87c-.08.13-.16.26-.23.39l-.38.72c-.31.58-.61,1.18-.89,1.78l-.3.64c-.34.77-.67,1.54-1,2.33a.42.42,0,0,0,0,.1c-.34.9-.66,1.81-.94,2.73-.36,1.18-.67,2.37-.93,3.56A40.85,40.85,0,0,0,37,95.94l.61.41a40.48,40.48,0,0,0,3.61,2.26A41.42,41.42,0,0,0,46.3,101Z"/><path id="_Trazado_117" data-name="&lt;Trazado&gt;" class="cls-15" d="M74.4,88.35c-.06.43-.1.86-.12,1.27a11.49,11.49,0,0,0,.14,2.15,13,13,0,0,0,.29,1.3,12.3,12.3,0,0,0,.65,1.74,13.46,13.46,0,0,0,.8,1.47c.1.15.19.3.29.44s.28.4.43.58.36.46.54.67a11.32,11.32,0,0,0,1.33,1.32l0,0,0,.1h0l.25,0A25.91,25.91,0,0,0,84.5,98c.92-.33,1.83-.69,2.74-1.1l.81-.4c9.33-4.51,17.14-12.48,17.14-12.48A51.32,51.32,0,0,1,74.4,88.35Z"/><path id="_Trazado_118" data-name="&lt;Trazado&gt;" class="cls-2" d="M96.87,72.64c-.74-1-1.49-2-2.25-2.92l-.11-.15q-1.2-1.51-2.43-3l0,0c-.85-1-1.7-2.05-2.57-3.05l-.17-.2c-.53-.61-1.07-1.21-1.61-1.82l-.57-.62c-.45-.49-.91-1-1.37-1.46s-.72-.74-1.08-1.11l-1-1c-.75-.73-1.5-1.46-2.27-2.16l-1-.93h0a46.35,46.35,0,0,1,2,6.46c.11.58.2,1.13.27,1.68,1,7.63-1.42,12.61-5.3,19.17l-.86,1.43a15.39,15.39,0,0,0-1.79,4.2,12.72,12.72,0,0,0-.25,1.29,51.13,51.13,0,0,0,30.78-4.3s-2.29-3.38-5.75-8c-.77-1-1.55-2.08-2.34-3.11A3,3,0,0,0,96.87,72.64Z"/><path id="_Trazado_119" data-name="&lt;Trazado&gt;" d="M78.75,99.29A10.47,10.47,0,0,1,77.42,98c-.18-.21-.36-.42-.55-.67s-.28-.38-.42-.58-.19-.29-.29-.44a13.46,13.46,0,0,1-.8-1.47,12.3,12.3,0,0,1-.65-1.74,10.7,10.7,0,0,1-.29-1.3,11.49,11.49,0,0,1-.14-2.15c0-.41.06-.84.12-1.28s.14-.84.25-1.28a15.39,15.39,0,0,1,1.79-4.2h0c.29-.49.57-1,.84-1.43,3.89-6.55,6.33-11.53,5.31-19.16-.07-.55-.17-1.11-.27-1.68q-.09.6-.18,1l0,.09c0,.17-.08.33-.12.45-1.69,5-4.49,8.87-8.31,13-.52.56-1.06,1.13-1.62,1.7-.93,1-1.91,2-3,3l-1.26,1.26-1.5,1.53h0c-.36,1-.77,2.15-1.12,3.35l-.46-.17A54.24,54.24,0,0,1,52.4,79.11a54.17,54.17,0,0,0,10.26,9.65A21,21,0,0,0,64.5,90c-.26,4.21,1.59,8.25,10,9.45a16.51,16.51,0,0,0,4.33,0s0-.08,0-.1Z"/></g></g></g></svg>