<svg id="Capa_1" data-name="Capa 1" xmlns="http://www.w3.org/2000/svg" xmlns:xlink="http://www.w3.org/1999/xlink" width="192.5" height="96.25" viewBox="0 0 192.5 96.25"><defs><style>.cls-1{fill:#504e4f;}.cls-2{fill:url(#Degradado_sin_nombre_11);}.cls-3{fill:url(#Degradado_sin_nombre_18);}.cls-4{fill:url(#Degradado_sin_nombre_35);}.cls-5{fill:#a3a2a7;}</style><linearGradient id="Degradado_sin_nombre_11" x1="18.46" y1="53.68" x2="54.64" y2="53.68" gradientUnits="userSpaceOnUse"><stop offset="0" stop-color="#4496cd"/><stop offset="1" stop-color="#b0c96e"/></linearGradient><linearGradient id="Degradado_sin_nombre_18" x1="36.17" y1="30.89" x2="36.17" y2="45.29" gradientUnits="userSpaceOnUse"><stop offset="0" stop-color="#eba058"/><stop offset="1" stop-color="#d87044"/></linearGradient><linearGradient id="Degradado_sin_nombre_35" x1="20.01" y1="31.62" x2="20.01" y2="59.69" gradientUnits="userSpaceOnUse"><stop offset="0" stop-color="#e67d4b"/><stop offset="0.51" stop-color="#da4968"/><stop offset="1" stop-color="#8f5086"/></linearGradient></defs><title>viwom</title><path class="cls-1" d="M109.36,48.47a14.46,14.46,0,0,1-1,1.29,7.25,7.25,0,0,1-12.13-2.89,7.3,7.3,0,0,1-.25-1.8c0-2.18,0-4.36,0-6.54,0-1,.66-1.08,1.32-1,.34.07.52.37.52.8,0,.89,0,1.79,0,2.68v3.79a5.34,5.34,0,0,0,10.63.66,23.71,23.71,0,0,0,0-3c0-1.32,0-2.64,0-4,0-.65.29-.94.89-1s1,.27,1,1c0,2.13,0,4.25,0,6.37a5.33,5.33,0,0,0,10.59.76,2.42,2.42,0,0,0,0-.47V38.46a.8.8,0,0,1,.92-.92c.62,0,.92.28.92.92,0,2.44,0,4.88,0,7.33a5.58,5.58,0,0,1-2.2,4.24A7.53,7.53,0,0,1,115.45,52a6.7,6.7,0,0,1-5.89-3.25l-.13-.21Z"/><path class="cls-1" d="M166.67,41.16c.15-.22.25-.39.37-.55a6.92,6.92,0,0,1,7-3,6.83,6.83,0,0,1,5.71,4.88,8,8,0,0,1,.3,2.25c0,2,0,4,0,5.93a2.81,2.81,0,0,1,0,.29c0,.59-.29.83-.84.84s-.92-.2-1-.81a3,3,0,0,1,0-.42c0-2.08,0-4.15,0-6.23a5.16,5.16,0,0,0-4.11-4.85A5.3,5.3,0,0,0,167.63,44a3,3,0,0,0,0,.42q0,3.26,0,6.51c0,.64-.28.91-.91.91s-.92-.29-.93-1q0-3.07,0-6.15a5.21,5.21,0,0,0-4.25-5.2,5.34,5.34,0,0,0-6.34,4.29,4,4,0,0,0,0,.6v6.23c0,.11,0,.23,0,.35-.05.87-.66,1-1.35.79-.19-.06-.32-.34-.45-.53s0-.19,0-.28c0-2.39,0-4.77,0-7.16a5,5,0,0,1,1.26-3.26,7.92,7.92,0,0,1,4.62-2.85,6.83,6.83,0,0,1,7.24,3.06Z"/><path class="cls-1" d="M138,37.54a7.19,7.19,0,1,1-.09,14.38,7.23,7.23,0,0,1-7.12-7.25A7.13,7.13,0,0,1,138,37.54Zm-5.35,7.16A5.27,5.27,0,0,0,138,50.07a5.35,5.35,0,1,0,0-10.69A5.28,5.28,0,0,0,132.68,44.7Z"/><path class="cls-1" d="M67.92,50c1.06-.07,2-.08,3-.23a10.46,10.46,0,0,0,2.4-.62,4.1,4.1,0,0,0,2.71-3.78c.09-1.72,0-3.43.07-5.15,0-.58,0-1.17,0-1.75s.3-.91.93-.9.91.3.91,1c0,2.08,0,4.17,0,6.25A8.89,8.89,0,0,1,77.64,47a6,6,0,0,1-4.36,4.18,15.64,15.64,0,0,1-4.29.64c-.66,0-1.31,0-2,0a.8.8,0,0,1-.93-.87,2.18,2.18,0,0,1,0-.25v-12c0-.12,0-.24,0-.36.05-.53.33-.76.92-.76s.83.22.89.75c0,.17,0,.33,0,.5V50Z"/><path class="cls-1" d="M87.87,44.76v6.15c0,.81-.37,1.12-1.17,1a.67.67,0,0,1-.63-.59,2.33,2.33,0,0,1,0-.38q0-6.19,0-12.37a.91.91,0,0,1,1.33-.94.65.65,0,0,1,.48.59,7.68,7.68,0,0,1,0,.83Z"/><path class="cls-2" d="M54.6,43.46a2,2,0,0,0-.05-1h0l0-1.38s0,0-.06,0v0h.06a3,3,0,0,0-.06-1c0-.17,0-.34,0-.51h0a.43.43,0,0,0,0-.16c0-.75,0-.77-.68-.52l-.26.25c-.14,0-.23.1-.34.18h0l-.09.07h-.16c-.19.14-.45.16-.61.35h0c-.11.07-.27.08-.34.23s0,0,0,.05l-.66.33c-.18,0-.31.13-.47.17a.82.82,0,0,0-.2.12c-.18.19-.5.22-.61.5h0l-.1.07,0,0-.3.13-.95.61a1.4,1.4,0,0,0-.47.28s0,0-.06,0a.25.25,0,0,0-.19.15h0a1.65,1.65,0,0,0-.66.4h0a.68.68,0,0,0-.44.25h0a.64.64,0,0,0-.26.13.21.21,0,0,0-.08,0,1.35,1.35,0,0,0-.59.31.36.36,0,0,0-.14.16c-.22-.06-.37.13-.55.2l-.08.08-.1.17h0l-.14.08h0c-.27,0-.41.17-.6.29a.34.34,0,0,1-.09.08.51.51,0,0,0-.18.09c-.19,0-.3.16-.44.26h0l-.44.34h0a5.12,5.12,0,0,0-1,.56h0l0,0h0a.88.88,0,0,0-.34.19,1.51,1.51,0,0,0-.54.33h0l-.29.17s0,0,0,0a.56.56,0,0,0-.49.25l0,.06c-.31,0-.51.28-.76.42l-.71.49h0l-.06,0-.84.43-.32.24-.16,0c-.2.1-.44.16-.55.4-.28,0-.47.17-.69.28l-.1.07a.73.73,0,0,0-.17.18h0a.89.89,0,0,0-.37.11c-.49.3-1,.58-1.48.87-.19.12-.42.19-.51.43h0a10.56,10.56,0,0,0-1.37.82c-.15,0-.22.12-.33.19l-.41.18-.13.15h0l-.15.1a.28.28,0,0,0-.27.15h0a.08.08,0,0,1,0,0s0,0,0-.06a.34.34,0,0,0-.29.14,9.71,9.71,0,0,1-1.29.76s0,0,0,0h0a3.11,3.11,0,0,0-1,.57L28,54.2h0a.73.73,0,0,0-.34.2,7,7,0,0,0-1.12.66l-.49.21a2.54,2.54,0,0,0-1,.66h0l0,0v0l-.49.2-.16.13-.13,0a2.14,2.14,0,0,0-.58.35,2.11,2.11,0,0,0-.19.23h0a3.39,3.39,0,0,0-1.12.61,9.22,9.22,0,0,0-1.35.8l-2.25,1.28-.09.06h0c-.13,0-.28.08-.24.28h.42v-.07h0s0,0,0,.07a43.05,43.05,0,0,0,4.54.28,7.32,7.32,0,0,0,1.75.08s0-.06,0-.09h0v.09h.41a11.23,11.23,0,0,0,2,0c.08,0,.19,0,.25.1,1.15.62,2.27,1.28,3.36,2h0c.07.09.18.11.27.17l.16.1v0l.86.46a.46.46,0,0,0,.26.15h0a2.18,2.18,0,0,0,.66.38h0a3.26,3.26,0,0,0,.86.51h0l1.49.94.29.13a.34.34,0,0,1,.08.09,8.68,8.68,0,0,0,1.37.89l.15,0c.14.09.29.16.44.24h0a11.61,11.61,0,0,0,1.69,1h0l.41.18s0,0,0,0a.46.46,0,0,0,.33.23h0a.22.22,0,0,0,.17.06h0a3,3,0,0,0,.74.43c0,.06.06.14.16.11,0-.25,0-.49,0-.73,0-2.5,0-5,0-7.5h0a0,0,0,0,1,0,0h0v0l3.08-.12a.68.68,0,0,0,.46-.07c.66,0,1.31-.1,2-.11h0a4,4,0,0,0,1-.14h.16a5.06,5.06,0,0,0,2.93-.77,6.59,6.59,0,0,0,1.09-.79.09.09,0,0,0,.06-.11s0,0,0,0a3.25,3.25,0,0,0,.77-1.06h.07l.26-.69h0l.16-.27c.09-.6.31-1.18.35-1.79h0a2.33,2.33,0,0,0,.1-.78c.1-.1.07-.22.07-.34h0l-.06-.1h0a2.17,2.17,0,0,0,.07-.24h0a15.11,15.11,0,0,0,.16-1.65h0l0-.33h0a8.56,8.56,0,0,0,.09-1.75C54.7,47.24,54.62,45.35,54.6,43.46ZM30.52,52.84h0ZM50.67,41h0ZM32.23,52.16Zm11,3,0,0Zm-2,6.53h0Zm-8.44-6.79v0l0,0Zm15.08-1.21.16.09A.51.51,0,0,1,47.83,53.64Zm-6.64,9.72Zm-1.81-4.53.2.1Zm4.83.65ZM54.29,47.6h.08S54.32,47.58,54.29,47.6ZM49.21,47l.09,0Zm5.13-3.24h0ZM27.42,55.1Zm-1.29,5h0ZM51.79,40.44ZM26.55,55.17Zm-2.29,1.55s0,0,0,0l.05,0Zm.56,3.45Zm10.86,4.65s0,0,.08,0h-.08Zm6-4.57v-.08h0S41.69,60.22,41.71,60.25Zm5.7-.43h0Z"/><path class="cls-3" d="M19,32h0l2.73,1.63,4.88,2.9a.67.67,0,0,0,.4.26.75.75,0,0,0,.25.09,2.92,2.92,0,0,0,.52.28h0l0,0h0a1.86,1.86,0,0,0,.69.41l.08.06.1,0,.06,0a1.72,1.72,0,0,0,.48.26l.29.23c0,.07.09.07.16,0l.28.22a5.32,5.32,0,0,1,1,.6l.9.47h0l.57.4,1,.53h0L36,42a2.85,2.85,0,0,0,.78.44h0a9.7,9.7,0,0,0,1.46.87l0,0h0l0,0c.79.51,1.6,1,2.43,1.43a1.46,1.46,0,0,0,.5.29h0l.13.14a.64.64,0,0,0,.8-.06c.25-.17.53-.3.8-.45a12.6,12.6,0,0,0,1.68-1s0,0,0-.06h0a3.17,3.17,0,0,0,.38-.17.7.7,0,0,0,.2-.15.12.12,0,0,0,0-.1h0c.15.07.23,0,.32-.11h0a.13.13,0,0,0,.1-.11.22.22,0,0,0,.2-.06.25.25,0,0,1,0-.08H46a.14.14,0,0,1,0-.07s0,0,0,0a.88.88,0,0,0,.4-.22l2-1.21c.24-.14.53-.22.68-.49h.06c.2,0,.32-.16.5-.18l.28-.25.09-.06a5.65,5.65,0,0,0,1.21-.71h0l.59-.27s0,0,0-.07l.15,0,.28-.23c.07,0,.13,0,.15-.11h0l.36-.18h0a.48.48,0,0,0,.26-.16l.23-.11c1.2-.76,1-.29.79-1.7a6.92,6.92,0,0,0-.76-2.58,5,5,0,0,0-3.77-2.74c-1.29-.22-2.61-.25-3.92-.38-.79-.09-1.6,0-2.39-.15H41.62c-.33,0-.66-.06-1-.06H26a.89.89,0,0,0-.51.06,55.86,55.86,0,0,0-5.62.31h0c-.43.09-.89.05-1.35.17l-.45.06Zm2-.55h0Zm16.28,6.19-.07,0Zm5.28.77h0Zm-8.55-6h0ZM30.42,37.6h0Zm-.34.09Zm14.33,4.9a.25.25,0,0,1,.16.06Zm4.43-2a.13.13,0,0,0-.05-.06h0S48.84,40.6,48.84,40.62ZM37,41.77h0Zm16.22-4.36-.06,0ZM52.3,38.9h0Z"/><path class="cls-4" d="M18.57,58.89a2.39,2.39,0,0,0,.92-.61c.26,0,.41-.15.59-.28a3.87,3.87,0,0,0,1-.57h0a.64.64,0,0,0,.34-.19,6.69,6.69,0,0,0,1.15-.68h0A10.67,10.67,0,0,0,24,55.71h0a2,2,0,0,0,.6-.35A1,1,0,0,0,25,55.1h0a5.21,5.21,0,0,0,.83-.47l.37-.23A3.14,3.14,0,0,0,27,54a.78.78,0,0,0,.38-.23h0l.4-.19c0-1.71,0-3.43,0-5.14a0,0,0,0,1,0,0,.9.9,0,0,0,0-.4V40.88h0c0-.8,0-1.61,0-2.41a.66.66,0,0,0-.53-.78c-.16-.18-.4-.23-.59-.36l-1.4-.82-.5-.29-.62-.4c-.16-.15-.31-.32-.57-.21h0a.17.17,0,0,0-.13-.24l-.42-.2L21,34h0l-1.31-.82a1.94,1.94,0,0,0-.61-.35l-.25-.15a1.77,1.77,0,0,0-.6-.37h0l-1.18-.63a.34.34,0,0,0-.38-.09,3.63,3.63,0,0,0-1.29.6l-.15,0-.11.15h0a4.48,4.48,0,0,0-1.73,2.07,5.44,5.44,0,0,0-.59,2.16h0a.18.18,0,0,0-.06.18l0,.25-.07,0v.32a2.41,2.41,0,0,0-.12.92.64.64,0,0,0-.05.45h0l0,.41h0a1.81,1.81,0,0,0-.07.8,17.52,17.52,0,0,0-.1,2.4h0a.76.76,0,0,0-.06.42c0,1.83,0,3.67,0,5.51a22.2,22.2,0,0,0,.14,2.7,4.69,4.69,0,0,0,.1,1.29,1.61,1.61,0,0,0,.07.69h.1a.12.12,0,0,0-.1,0,17.53,17.53,0,0,0,.61,3.37c.07.1.09.23.17.33a.14.14,0,0,1,0,.07,1.62,1.62,0,0,0,.48.8.38.38,0,0,0,.27.28c.17.17.24.45.51.53a5.4,5.4,0,0,0,1.4,1l.34.1h0c.33.08.64.34,1,.16s.81-.49,1.21-.74Zm9-20.86ZM12.72,43.19v0Zm9.07,9.23v0l0,0ZM26.63,51v0h0S26.63,51,26.63,51Zm.43-8.31ZM22.2,37.14l-.07,0ZM21,56.72h0Zm-8.25-11v0l0,0Zm14.91,2.19h0Zm0-1h0s0,0,0-.06ZM12.76,52.05v0h0ZM27.67,38.43l0,0h0S27.66,38.41,27.67,38.43ZM13.11,35.88Z"/><path class="cls-5" d="M70.08,61.21h-.49l-.87-2.87c0-.13-.08-.29-.13-.48a2.89,2.89,0,0,1-.08-.35,6.43,6.43,0,0,1-.21.84l-.84,2.86H67l-1.14-4.29h.53L67,59.57a8,8,0,0,1,.21,1,7.26,7.26,0,0,1,.23-1l.77-2.61h.53l.81,2.63a9.89,9.89,0,0,1,.24,1,6.62,6.62,0,0,1,.21-1l.67-2.64h.53Z"/><path class="cls-5" d="M78.79,59.06a2.34,2.34,0,0,1-.53,1.62,1.83,1.83,0,0,1-1.44.59,1.9,1.9,0,0,1-1.47-.58,2.4,2.4,0,0,1-.51-1.64,2.3,2.3,0,0,1,.52-1.62,2.1,2.1,0,0,1,2.91,0A2.39,2.39,0,0,1,78.79,59.06Zm-3.42,0a2,2,0,0,0,.37,1.32,1.33,1.33,0,0,0,1.08.45,1.29,1.29,0,0,0,1.07-.45,2.55,2.55,0,0,0,0-2.63,1.31,1.31,0,0,0-1.08-.45,1.33,1.33,0,0,0-1.08.45A2,2,0,0,0,75.37,59.06Z"/><path class="cls-5" d="M86.65,61.21h-.5l-.86-2.87c0-.13-.09-.29-.14-.48a2.89,2.89,0,0,1-.08-.35,5.15,5.15,0,0,1-.21.84L84,61.21h-.5l-1.14-4.29h.53l.68,2.65a9.94,9.94,0,0,1,.2,1,7.28,7.28,0,0,1,.24-1l.77-2.61h.52l.81,2.63a7.86,7.86,0,0,1,.24,1,10.37,10.37,0,0,1,.21-1l.67-2.64h.53Z"/><path class="cls-5" d="M97.44,59.06l1.14-2.14h.54l-1.43,2.63v1.66h-.5V59.57l-1.43-2.65h.54Z"/><path class="cls-5" d="M106.59,59.06a2.34,2.34,0,0,1-.52,1.62,1.83,1.83,0,0,1-1.44.59,1.89,1.89,0,0,1-1.47-.58,2.4,2.4,0,0,1-.51-1.64,2.3,2.3,0,0,1,.52-1.62,2.1,2.1,0,0,1,2.91,0A2.38,2.38,0,0,1,106.59,59.06Zm-3.41,0a2,2,0,0,0,.37,1.32,1.31,1.31,0,0,0,1.08.45,1.29,1.29,0,0,0,1.07-.45,2,2,0,0,0,.37-1.32,2,2,0,0,0-.37-1.31,1.28,1.28,0,0,0-1.07-.45,1.33,1.33,0,0,0-1.08.45A2,2,0,0,0,103.18,59.06Z"/><path class="cls-5" d="M114,56.92V59.7a1.54,1.54,0,0,1-.44,1.15,1.71,1.71,0,0,1-1.22.42,1.62,1.62,0,0,1-1.2-.42,1.6,1.6,0,0,1-.42-1.17V56.92h.5v2.8a1.07,1.07,0,0,0,.29.82,1.15,1.15,0,0,0,.86.29,1.17,1.17,0,0,0,.84-.29,1.13,1.13,0,0,0,.29-.83V56.92Z"/><path class="cls-5" d="M118.75,59.43v1.78h-.5V56.92h1.17a1.86,1.86,0,0,1,1.17.3,1.11,1.11,0,0,1,.38.91,1.14,1.14,0,0,1-.87,1.15l1.17,1.93h-.59l-1-1.78Zm0-.43h.68a1.16,1.16,0,0,0,.77-.21.77.77,0,0,0,.25-.63.69.69,0,0,0-.25-.61,1.34,1.34,0,0,0-.81-.19h-.64Z"/><path class="cls-5" d="M132.54,61.21,132,59.85h-1.71l-.53,1.36h-.51L131,56.9h.42l1.68,4.31Zm-.69-1.81-.5-1.33c-.06-.17-.13-.38-.2-.62a5.08,5.08,0,0,1-.18.62l-.51,1.33Z"/><path class="cls-5" d="M140,56.92V59.7a1.5,1.5,0,0,1-.44,1.15,1.69,1.69,0,0,1-1.22.42,1.66,1.66,0,0,1-1.2-.42,1.6,1.6,0,0,1-.42-1.17V56.92h.5v2.8a1.11,1.11,0,0,0,.29.82,1.17,1.17,0,0,0,.87.29,1.13,1.13,0,0,0,.83-.29,1.1,1.1,0,0,0,.3-.83V56.92Z"/><path class="cls-5" d="M147.76,59a2.2,2.2,0,0,1-.57,1.63,2.31,2.31,0,0,1-1.66.56h-1.19V56.92h1.31a1.91,1.91,0,0,1,2.11,2.1Zm-.52,0a1.71,1.71,0,0,0-.43-1.26,1.65,1.65,0,0,0-1.25-.43h-.72v3.43h.61a1.86,1.86,0,0,0,1.34-.44A1.74,1.74,0,0,0,147.24,59Z"/><path class="cls-5" d="M151.88,61.21V56.92h.5v4.29Z"/><path class="cls-5" d="M159.11,61.21h-2.39V56.92h2.39v.44h-1.9v1.38H159v.45h-1.78v1.57h1.9Z"/><path class="cls-5" d="M166.57,61.21H166l-2.35-3.6h0c0,.42.05.81.05,1.16v2.44h-.46V56.92h.56l2.34,3.59h0c0-.06,0-.23,0-.51s0-.5,0-.62V56.92h.47Z"/><path class="cls-5" d="M172.74,57.3a1.38,1.38,0,0,0-1.11.48,1.89,1.89,0,0,0-.41,1.28,2,2,0,0,0,.39,1.31,1.44,1.44,0,0,0,1.13.46,3.74,3.74,0,0,0,1-.17v.44a3.14,3.14,0,0,1-1.1.17,1.83,1.83,0,0,1-1.46-.58,2.38,2.38,0,0,1-.51-1.63,2.64,2.64,0,0,1,.24-1.16,1.79,1.79,0,0,1,.72-.77,2.16,2.16,0,0,1,1.1-.27,2.73,2.73,0,0,1,1.18.24l-.21.43A2.34,2.34,0,0,0,172.74,57.3Z"/><path class="cls-5" d="M180.25,61.21h-2.39V56.92h2.39v.44h-1.89v1.38h1.78v.45h-1.78v1.57h1.89Z"/></svg>