<svg id="Layer_1" data-name="Layer 1" xmlns="http://www.w3.org/2000/svg" viewBox="0 0 722.1 145.6"><defs><style>.cls-1{fill:#9b5c8f;}.cls-2{fill:#fff;}</style></defs><title>WooCommerce Logo</title><path class="cls-1" d="M22.7,0H221.8a22.79,22.79,0,0,1,22.8,22.8v76a22.79,22.79,0,0,1-22.8,22.8H150.4l9.8,24-43.1-24H22.8A22.79,22.79,0,0,1,0,98.8v-76A22.7,22.7,0,0,1,22.7,0Z"/><path class="cls-2" d="M12.2,20.7a8,8,0,0,1,6.3-3.1q7.65-.6,8.7,7.2,4.65,31.35,10.1,53.1L59.2,36.2q3-5.7,7.5-6c4.4-.3,7.1,2.5,8.2,8.4a186.8,186.8,0,0,0,9.5,34.2q3.9-38.1,13.2-55a7.68,7.68,0,0,1,6.6-4.4,8.69,8.69,0,0,1,6.3,2,7.83,7.83,0,0,1,3.1,5.7,8.68,8.68,0,0,1-1,4.8c-3.9,7.2-7.1,19.3-9.7,36.1-2.5,16.3-3.4,29-2.8,38.1a11.87,11.87,0,0,1-1.2,6.6,6.44,6.44,0,0,1-5.3,3.6c-2.6.2-5.3-1-7.9-3.7Q71.75,92.35,63.6,64,53.85,83.2,49.2,92.8c-5.9,11.3-10.9,17.1-15.1,17.4-2.7.2-5-2.1-7-6.9Q19.45,83.65,10.6,27.4A8.93,8.93,0,0,1,12.2,20.7Z"/><path class="cls-2" d="M227.2,36.4a23,23,0,0,0-16-11.6,26.25,26.25,0,0,0-5.4-.6c-9.6,0-17.4,5-23.5,15a53,53,0,0,0-7.8,28.2q0,11.55,4.8,19.8a23,23,0,0,0,16,11.6,26.25,26.25,0,0,0,5.4.6c9.7,0,17.5-5,23.5-15A53.59,53.59,0,0,0,232,56.1c0-7.8-1.6-14.3-4.8-19.7ZM214.6,64.1c-1.4,6.6-3.9,11.5-7.6,14.8-2.9,2.6-5.6,3.7-8.1,3.2s-4.4-2.6-5.9-6.5a25.38,25.38,0,0,1-1.8-9.1,34.78,34.78,0,0,1,.7-7.3,32.33,32.33,0,0,1,5.3-11.9c3.3-4.9,6.8-6.9,10.4-6.2,2.4.5,4.4,2.6,5.9,6.5a25.38,25.38,0,0,1,1.8,9.1,43.23,43.23,0,0,1-.7,7.4Z"/><path class="cls-2" d="M164.5,36.4a23.24,23.24,0,0,0-16-11.6,26.25,26.25,0,0,0-5.4-.6c-9.6,0-17.4,5-23.5,15a53,53,0,0,0-7.8,28.2q0,11.55,4.8,19.8a23,23,0,0,0,16,11.6,26.25,26.25,0,0,0,5.4.6c9.7,0,17.5-5,23.5-15a53.59,53.59,0,0,0,7.8-28.3c0-7.8-1.6-14.3-4.8-19.7ZM151.9,64.1c-1.4,6.6-3.9,11.5-7.6,14.8-2.9,2.6-5.6,3.7-8.1,3.2s-4.4-2.6-5.9-6.5a25.38,25.38,0,0,1-1.8-9.1,34.78,34.78,0,0,1,.7-7.3,32.33,32.33,0,0,1,5.3-11.9c3.3-4.9,6.8-6.9,10.4-6.2,2.4.5,4.4,2.6,5.9,6.5a25.38,25.38,0,0,1,1.8,9.1,35.09,35.09,0,0,1-.7,7.4Z"/><path d="M269.9,35.5c-6.7,6.6-10,15-10,25.2,0,10.9,3.3,19.8,9.9,26.5S285,97.3,295.7,97.3a37.67,37.67,0,0,0,10.4-1.6V79.5A33.66,33.66,0,0,1,297,81a16.37,16.37,0,0,1-12.7-5.3c-3.2-3.6-4.8-8.4-4.8-14.5,0-5.7,1.6-10.4,4.7-14a15,15,0,0,1,11.9-5.5,37.35,37.35,0,0,1,10,1.5V27a41.77,41.77,0,0,0-10.9-1.3C285,25.6,276.6,28.9,269.9,35.5Zm69.4-9.9c-9.2,0-16.4,3.1-21.6,9.2S310,49.5,310,60.5c0,11.9,2.6,21,7.7,27.3s12.6,9.5,22.4,9.5c9.5,0,16.8-3.2,21.9-9.5s7.7-15.2,7.7-26.6-2.6-20.2-7.8-26.4S349.1,25.6,339.3,25.6Zm7.9,52a8.88,8.88,0,0,1-7.9,4.2,8,8,0,0,1-7.3-4.2c-1.7-2.8-2.5-8.4-2.5-16.9,0-13.1,3.3-19.6,10-19.6,7,0,10.6,6.6,10.6,19.9C350,69.2,349,74.8,347.2,77.6Zm71.9-50.1-3.6,15.3c-.9,3.9-1.8,7.9-2.6,12l-2,10.6c-1.9-10.6-4.5-23.2-7.8-37.9H379.9l-8.7,68.1h17.4l4.7-46.9,11.9,46.9h12.4L429,48.8l4.9,46.8h18.2l-9.2-68.1Zm83.3,0-3.6,15.3c-.9,3.9-1.8,7.9-2.6,12l-2,10.6c-1.9-10.6-4.5-23.2-7.8-37.9H463.2l-8.7,68.1h17.4l4.7-46.9,11.9,46.9h12.4l11.3-46.8,4.9,46.8h18.2l-9.2-68.1ZM559,68.7h16.3V54.6H559V42.1h18.8V27.6H540.6V95.7h37.3V81.2H559Zm70.7-10.8a18.2,18.2,0,0,0,2.9-9.6,17.93,17.93,0,0,0-7.5-15.2c-5-3.7-11.9-5.6-20.5-5.6H583.2V95.6h18.4v-31h.3l14.9,31h19.4L621.5,64.9A18.18,18.18,0,0,0,629.7,57.9Zm-28.2-1.1V40.6c4.4.1,7.5.8,9.4,2.2s2.8,3.6,2.8,6.8C613.7,54.3,609.6,56.7,601.5,56.8Zm41.9-21.3c-6.7,6.6-10,15-10,25.2,0,10.9,3.3,19.8,9.9,26.5s15.2,10.1,25.9,10.1a37.67,37.67,0,0,0,10.4-1.6V79.5a33.66,33.66,0,0,1-9.1,1.5,16.37,16.37,0,0,1-12.7-5.3c-3.2-3.6-4.8-8.4-4.8-14.5,0-5.7,1.6-10.4,4.7-14a15,15,0,0,1,11.9-5.5,37.35,37.35,0,0,1,10,1.5V27a41.77,41.77,0,0,0-10.9-1.3C658.6,25.6,650.1,28.9,643.4,35.5ZM703.1,81V68.6h16.3V54.5H703.1V42H722V27.5H684.8V95.6h37.3V81.1h-19Z"/></svg>