<?xml version="1.0" encoding="utf-8"?>
<!-- Generator: Adobe Illustrator 22.0.1, SVG Export Plug-In . SVG Version: 6.00 Build 0)  -->
<svg version="1.1"
	 id="svg2" inkscape:version="0.91 r13725" sodipodi:docname="WordPress logo.svg" xmlns:cc="http://creativecommons.org/ns#" xmlns:dc="http://purl.org/dc/elements/1.1/" xmlns:inkscape="http://www.inkscape.org/namespaces/inkscape" xmlns:rdf="http://www.w3.org/1999/02/22-rdf-syntax-ns#" xmlns:sodipodi="http://sodipodi.sourceforge.net/DTD/sodipodi-0.dtd" xmlns:svg="http://www.w3.org/2000/svg"
	 xmlns="http://www.w3.org/2000/svg" xmlns:xlink="http://www.w3.org/1999/xlink" x="0px" y="0px" viewBox="0 0 365.5 113.9"
	 style="enable-background:new 0 0 365.5 113.9;" xml:space="preserve">
<style type="text/css">
	.st0{fill:#002851;}
	.st1{fill:#7C90A3;}
</style>
<title  id="title4212">WordPress logo</title>
<sodipodi:namedview  bordercolor="#666666" borderopacity="1.0" fit-margin-bottom="0" fit-margin-left="0" fit-margin-right="0" fit-margin-top="0" id="base" inkscape:current-layer="layer1" inkscape:cx="231.36448" inkscape:cy="112.57668" inkscape:document-units="px" inkscape:pageopacity="0.0" inkscape:pageshadow="2" inkscape:window-height="705" inkscape:window-maximized="1" inkscape:window-width="1366" inkscape:window-x="-8" inkscape:window-y="-8" inkscape:zoom="0.98994949" pagecolor="#ffffff" showgrid="false">
	</sodipodi:namedview>
<g id="layer1" transform="translate(-94.270021,-72.68702)" inkscape:groupmode="layer" inkscape:label="Capa 1">
	<g id="g4207" transform="matrix(0.55888227,0,0,0.55888227,64.978598,-27.960983)">
		<path id="path4187" inkscape:connector-curvature="0" class="st0" d="M383.4,255.5c5.2-6.1,1.5-14.1-7-15.2l-4.8-0.6v9.8v9.8
			l4.7-0.5C379.8,258.3,381.7,257.5,383.4,255.5L383.4,255.5z M440.6,276.5c5.5-2.8,8-8.3,8-17.4c0-6.9-3.2-13.8-7.5-16.2
			c-1.6-0.9-5.8-2-9.2-2.4l-6.2-0.7v18.6c0,16.6,0.2,18.7,1.8,19.6C429.5,279.2,437,278.4,440.6,276.5L440.6,276.5z M351.7,282
			c0-1.5,0.7-2,2.9-2c5.3,0,6.1-2.4,6.1-20.7c0-14.9-0.2-16.4-2-18.3c-1.1-1.1-3.1-2-4.5-2c-1.9,0-2.5-0.5-2.5-2.1
			c0-2,0.3-2.1,16.8-1.7c15.1,0.3,17.2,0.6,21,2.6c9.4,5,9.9,17.6,0.9,23.1c-1.9,1.2-4.2,2.1-5.2,2.1c-2.4,0,10.7,13.3,15.2,15.5
			c4.3,2,10.8,2,12.5-0.1c1-1.3,1.4-5.8,1.4-19.1c0-16.1-0.1-17.5-1.9-18.8c-1.1-0.8-3.2-1.4-4.8-1.4c-2.1,0-2.8-0.5-2.8-2
			c0-1.9,0.7-2,15.8-2c17.8,0,25.3,1.4,31.7,5.8c12.4,8.6,12,29.3-0.7,37.9c-6.8,4.6-12.1,5.3-38.5,5.3h-23.7l-7.9-10
			c-4.3-5.5-8.3-10-8.8-10c-0.5,0-0.8,2.6-0.8,5.8c0,7.1,1.9,10.2,6.1,10.2c2.3,0,2.9,0.5,2.9,2c0,1.9-0.7,2-14.5,2
			C352.3,284,351.7,283.9,351.7,282L351.7,282z M330.4,277.4c9.8-7.1,9.8-28.6,0-35.6c-4.4-3.1-13-3.6-17.7-1
			c-5.2,2.9-9,10.7-9,18.6c0,8,3.8,16,9,18.8C317.2,280.7,326.5,280.2,330.4,277.4L330.4,277.4z M313.2,285.1
			c-8.9-2.4-18.1-10.4-20.3-17.9c-3.8-12.8,2.6-25.6,15.8-31.5c6.5-3,17.7-2.8,24.8,0.3c5.8,2.5,12.6,9.3,14.8,14.6
			c2,4.8,1.8,14.1-0.4,19c-2.2,4.8-9.6,11.8-14.8,14C328.5,285.4,317.5,286.3,313.2,285.1L313.2,285.1z M227.7,260.2
			C217,226.9,216,225,209.2,225c-1.9,0-2.6-0.5-2.6-2c0-1.9,0.7-2,16-2s16,0.1,16,2c0,1.5-0.7,2-2.9,2c-2.7,0-6.1,2.1-6.1,3.8
			c0,0.4,2.3,8,5.2,17c3.9,12.3,5.4,15.9,6.1,14.6c0.5-0.9,3.7-10,7.1-20.3c8.4-25.2,8.1-25.2,16.5,0.6c3.5,10.9,6.7,20.1,7,20.5
			c0.3,0.4,3-6.7,6-15.8c6-18.4,6-19.7-0.4-20.3c-2.8-0.2-3.6-0.7-3.6-2.3c0-1.8,0.8-1.9,14-1.9c13.3,0,14,0.1,14,2
			c0,1.6-0.7,2-3.6,2c-6.6,0-8.1,2.6-18.3,33.3c-7.2,21.5-9.7,27.7-10.8,27.5c-1-0.2-3.6-6.7-8-20.3c-3.5-11-6.7-20.3-7.1-20.7
			c-0.4-0.4-3.8,8.7-7.6,20.2c-5.1,15.6-7.4,21-8.5,21C236.4,286,234,279.6,227.7,260.2L227.7,260.2z"/>
		<path id="path4179" inkscape:connector-curvature="0" class="st0" d="M548.1,257.6c7.4-3.1,6.7-14.4-1.1-16.5
			c-8.3-2.3-8.3-2.3-8.3,8.4v9.5h3C543.4,259,546.2,258.3,548.1,257.6z M518.7,282c0-1.5,0.7-2,2.9-2c1.6,0,3.6-0.7,4.4-1.5
			c2-2,3-12.7,2.4-25.2c-0.6-11.6-1.9-14.3-6.9-14.3c-2.2,0-2.8-0.5-2.8-2.1c0-2.1,0.3-2.1,17.2-1.7c18.2,0.4,19.8,0.7,25,5.6
			c6.9,6.5,3.2,19.7-6.2,21.7l-3,0.7l4.7,5.5c8.9,10.4,18.1,14.2,21.7,9.1c1.3-1.8,1.6-5.4,1.6-18.5c0-14.9-0.2-16.4-2-18.3
			c-1.1-1.1-3.1-2-4.5-2c-1.8,0-2.5-0.5-2.5-2c0-1.9,0.7-2,21.4-2h21.4l0.7,7.1c0.4,3.9,0.5,7.3,0.1,7.6c-1.2,1.2-3.4-0.7-4-3.5
			c-0.8-3.9-2.6-4.8-11.9-5.7l-7.8-0.7v8.1v8.1l4.3-0.6c4.7-0.7,6.8-2.6,6.8-6.1c0-1.6,0.6-2.3,2-2.3c1.9,0,2,0.7,2,11.5
			c0,10.8-0.1,11.5-2,11.5c-1.5,0-2-0.7-2-2.9c0-3.6-3.1-6.1-7.7-6.1h-3.3v6.4c0,9,1.8,11.1,9.7,11.1c8.9-0.1,11-0.9,12.5-4.9
			c0.8-2.3,1.9-3.5,3.2-3.5c1.6,0,1.8,0.5,1.3,3.1c-0.3,1.7-0.6,4.9-0.6,7v3.9l-30.3,0l-30.2,0l-7.8-10c-4.3-5.5-8.2-10-8.8-10
			c-2,0,0,13.7,2.2,15.1c0.7,0.5,2.6,0.9,4.1,0.9c2.1,0,2.8,0.5,2.8,2c0,1.9-0.7,2-15,2S518.7,283.9,518.7,282L518.7,282z
			 M498.5,249.6c7.5-3.9,7.5-17.3,0-21.2c-1.5-0.8-5-1.4-7.8-1.4h-5v12v12h5C493.5,251,497,250.3,498.5,249.6L498.5,249.6z
			 M462.7,282c0-1.6,0.7-2,3-2c1.9,0,4-0.9,5.4-2.3c2-2,2.5-3.8,3.1-12.2c0.4-5.4,0.5-15.5,0.2-22.3c-0.7-14.6-1.9-17.4-8-17.9
			c-2.9-0.2-3.7-0.7-3.7-2.3c0-2,0.5-2,20.2-1.7c20.2,0.3,20.3,0.3,25.1,3.2c8.2,4.8,10.8,14,6.4,22.7c-3.3,6.6-10.4,10-21,10h-7.9
			l0.3,9.6c0.3,8.7,0.6,9.8,2.7,11.5c1.3,1.1,3.7,1.9,5.2,1.9c2.2,0,2.9,0.5,2.9,2c0,1.9-0.7,2-17,2S462.7,283.9,462.7,282
			L462.7,282z M669.7,275.5c0-9.7,0.1-10.5,1.9-10.5c1.3,0,2.1,0.9,2.6,3c0.8,3.7,4.8,8.5,8.6,10.5c6.3,3.2,13.9,0.8,13.9-4.4
			c0-3.6-2.7-6-12-10.6c-8.3-4.1-11.5-6.6-13.6-10.7c-3.1-5.9-0.5-14.2,5.3-17.1c5.7-2.9,9.9-2.9,19-0.1c1.7,0.5,2.2,0.3,2.2-0.9
			c0-0.9,0.8-1.6,2-1.6c1.9,0,2,0.7,2,9c0,8-0.2,9-1.8,9c-1.1,0-2.3-1.3-3-3.5c-2.7-7.5-11.6-11.1-16.2-6.5
			c-4.2,4.2-1.9,7.1,10.2,12.7c11.1,5.2,14.8,9.4,14.8,16.4c0,9.1-5.4,14.5-15.4,15.5c-4.1,0.4-6.4,0.1-10.1-1.6
			c-4.9-2.2-6.6-2.1-6.6,0.4c0,0.8-0.9,1.4-2,1.4C669.8,286,669.7,285.3,669.7,275.5L669.7,275.5z M625.7,275.5
			c0-9.8,0.1-10.5,2-10.5c1.2,0,2,0.7,2,1.7c0,3.2,4.4,9.5,8,11.4c7,3.7,15,1.4,15-4.5c0-3.2-3-5.6-13.5-11
			c-10.6-5.4-13.5-8.8-13.5-15.8c0-5.2,2.4-8.9,7.3-11.5c4.1-2.1,12.3-2.2,16.4-0.1c3,1.5,3.2,1.5,3.8-0.3c0.3-1,1.5-1.9,2.5-1.9
			c1.8,0,1.9,0.8,1.9,9c0,8.2-0.2,9-1.9,9c-1.3,0-2.3-1.1-3.1-3.5c-1.5-4.6-6.3-8.5-10.4-8.5c-7.1,0-10.2,6.1-4.9,9.8
			c1.5,1.1,6.4,3.8,10.8,6c10.4,5.2,12.7,7.7,13.3,14.5c0.5,6.6-2.2,11.2-8.7,14.5c-5.5,2.8-11.1,2.8-16.9,0.2
			c-4.5-2-6.1-1.9-6.1,0.6c0,0.8-0.9,1.4-2,1.4C625.8,286,625.7,285.3,625.7,275.5L625.7,275.5z"/>
		<path id="path4165" inkscape:connector-curvature="0" class="st0" d="M96.4,253.4c-5.9-17.6-10.8-32.3-10.8-32.7
			c0-0.4,1.5-0.9,3.6-1c4.2-0.3,6.2-1.7,4.8-3.4c-0.8-0.9-2.1-1-11.3-0.6c-5.8,0.2-10.5,0.2-10.5,0c0-1.1,4.1-6.2,8.5-10.4
			c11.1-10.9,25.9-16.9,41.7-16.9c7.1,0,12.4,0.9,19.8,3.3c6,2,15.3,7.2,18.9,10.6l1.8,1.7l-2.8,0.8c-3.6,1-6.5,4-7.4,7.6
			c-0.9,3.7,0.2,7.4,4.4,14.5c7.5,12.7,7.6,17.7,0.4,41.4c-2.7,8.8-5,16.1-5.2,16.3c-0.2,0.2-0.5-0.1-0.6-0.6
			c-1-2.7-21.6-63.7-21.6-63.9c0-0.1,1.2-0.3,2.7-0.3c4.4-0.1,5.9-0.7,5.9-2.5v-1.6l-17.5,0c-13.7,0-17.6,0.1-17.8,0.8
			c-0.7,1.7,0.4,2.7,3.4,3.1c1.6,0.2,3.4,0.4,3.9,0.5c0.6,0.1,2.7,5.1,5.6,12.9l4.7,12.8l-6.6,19.8c-3.6,10.9-6.7,19.8-6.9,19.8
			C107.3,285.4,102.3,271,96.4,253.4L96.4,253.4z M151.8,300c0-0.1,4.4-12.7,9.7-28.1c12-34.5,12.8-37.4,12.9-46.2
			c0-5.9,0.1-6.6,0.9-5.5c1.5,2.1,4.6,10.7,5.6,15.9c1.2,5.7,1.3,17.1,0.3,22.7c-2.2,12.5-8.9,24.9-18.1,33.4
			C158.3,296.7,151.8,301.2,151.8,300z M90.1,299c-14.2-9.1-24-23.8-27-40.2c-1.1-6-0.8-16.7,0.6-23.3c1.2-5.6,3.6-12.3,4.2-11.7
			c0.3,0.3,28.6,77.6,28.6,78.1C96.5,302.7,94.2,301.6,90.1,299z M114.2,307.8c-6.6-0.9-9.5-1.7-9.1-2.8c0.2-0.5,4.2-12,8.8-25.5
			c4.6-13.5,8.7-25,9-25.6c0.4-0.8,0.7-0.5,1.3,1c2.9,7.5,18,49.3,18,49.7c0,1.3-14.7,4-20.9,3.8
			C119.8,308.4,116.7,308.1,114.2,307.8z M133.5,313.3c33.5-5.8,58.1-38.1,54.4-71.3c-1.9-16.6-7.9-28.9-19.9-40.8
			c-12.6-12.4-28-18.7-45.7-18.7c-12.2,0-23.6,3.2-34.2,9.5c-6.6,3.9-16.6,13.6-20.8,20.1c-15.5,24.2-14.5,53.3,2.6,76.1
			C84.6,307.6,109.5,317.5,133.5,313.3L133.5,313.3z M109.8,317.2c-14.2-2.7-26.6-9.2-36.7-19.3c-27-26.9-27.6-70.2-1.4-97.8
			c10-10.6,23-17.7,37-20.4c6.9-1.3,20.1-1.3,27.1,0c25.4,4.8,46.4,24.1,53.6,49.2c9.5,33.3-6.4,68.1-37.9,82.9
			c-8.7,4.1-16.3,5.8-27.3,6.1C117.7,318,113.3,317.8,109.8,317.2L109.8,317.2z"/>
	</g>
</g>
<g>
	<path class="st1" d="M78,103.2c0.8,0.5,2.7,1.3,4.6,1.3c3.6,0,4.7-2.3,4.7-4c0-2.9-2.7-4.2-5.4-4.2h-1.6v-2.1h1.6
		c2,0,4.6-1.1,4.6-3.5c0-1.7-1.1-3.1-3.6-3.1c-1.7,0-3.3,0.7-4.2,1.4l-0.7-2c1.1-0.8,3.2-1.6,5.4-1.6c4.1,0,6,2.4,6,5
		c0,2.1-1.3,4-3.8,4.9v0.1c2.6,0.5,4.6,2.4,4.6,5.3c0,3.3-2.6,6.2-7.6,6.2c-2.3,0-4.4-0.7-5.4-1.4L78,103.2z"/>
	<path class="st1" d="M94.6,95.8c0-1.8,0-3.4-0.1-4.8H97l0.1,3h0.1c0.7-2.1,2.4-3.4,4.3-3.4c0.3,0,0.5,0,0.8,0.1v2.7
		c-0.3-0.1-0.6-0.1-1-0.1c-2,0-3.4,1.5-3.8,3.6c-0.1,0.4-0.1,0.8-0.1,1.3v8.3h-2.8V95.8z"/>
	<path class="st1" d="M118.2,83.7v18.7c0,1.4,0,2.9,0.1,4h-2.5l-0.1-2.7h-0.1c-0.9,1.7-2.8,3-5.3,3c-3.7,0-6.6-3.2-6.6-7.9
		c0-5.2,3.2-8.3,6.9-8.3c2.4,0,4,1.1,4.7,2.4h0.1v-9.2H118.2z M115.3,97.3c0-0.4,0-0.8-0.1-1.2c-0.4-1.8-2-3.3-4.1-3.3
		c-2.9,0-4.6,2.6-4.6,6c0,3.1,1.5,5.7,4.6,5.7c1.9,0,3.6-1.2,4.1-3.4c0.1-0.4,0.1-0.8,0.1-1.2V97.3z"/>
	<path class="st1" d="M129.4,96.7v2.1h-7.9v-2.1H129.4z"/>
	<path class="st1" d="M132.7,96c0-2-0.1-3.6-0.1-5.1h2.5l0.1,2.7h0.1c1.2-1.9,3-3,5.5-3c3.7,0,6.6,3.2,6.6,7.9c0,5.6-3.4,8.3-7,8.3
		c-2,0-3.8-0.9-4.8-2.4h-0.1v8.4h-2.8V96z M135.4,100.1c0,0.4,0.1,0.8,0.1,1.2c0.5,2,2.2,3.3,4.2,3.3c3,0,4.7-2.4,4.7-6
		c0-3.1-1.6-5.8-4.6-5.8c-1.9,0-3.7,1.4-4.3,3.5c-0.1,0.4-0.2,0.8-0.2,1.2V100.1z"/>
	<path class="st1" d="M159.4,106.4l-0.2-2h-0.1c-0.9,1.2-2.5,2.3-4.7,2.3c-3.1,0-4.7-2.2-4.7-4.4c0-3.7,3.3-5.8,9.3-5.8v-0.3
		c0-1.3-0.4-3.6-3.5-3.6c-1.4,0-2.9,0.4-4,1.2l-0.6-1.9c1.3-0.8,3.1-1.4,5.1-1.4c4.7,0,5.9,3.2,5.9,6.3v5.8c0,1.3,0.1,2.7,0.3,3.7
		H159.4z M159,98.5c-3.1-0.1-6.6,0.5-6.6,3.5c0,1.8,1.2,2.7,2.7,2.7c2,0,3.3-1.3,3.7-2.6c0.1-0.3,0.2-0.6,0.2-0.9V98.5z"/>
	<path class="st1" d="M166.3,95.8c0-1.8,0-3.4-0.1-4.8h2.5l0.1,3h0.1c0.7-2.1,2.4-3.4,4.3-3.4c0.3,0,0.5,0,0.8,0.1v2.7
		c-0.3-0.1-0.6-0.1-1-0.1c-2,0-3.4,1.5-3.8,3.6c-0.1,0.4-0.1,0.8-0.1,1.3v8.3h-2.8V95.8z"/>
	<path class="st1" d="M180.9,86.5v4.4h4v2.1h-4v8.4c0,1.9,0.5,3,2.1,3c0.7,0,1.3-0.1,1.6-0.2l0.1,2.1c-0.5,0.2-1.4,0.4-2.5,0.4
		c-1.3,0-2.4-0.4-3-1.2c-0.8-0.8-1.1-2.2-1.1-4v-8.4h-2.4v-2.1h2.4v-3.7L180.9,86.5z"/>
	<path class="st1" d="M189.4,90.9l3.4,9.2c0.4,1,0.7,2.2,1,3.2h0.1c0.3-0.9,0.6-2.1,1-3.2l3.1-9.1h3l-4.2,11c-2,5.3-3.4,8-5.3,9.7
		c-1.4,1.2-2.8,1.7-3.5,1.8l-0.7-2.4c0.7-0.2,1.6-0.7,2.5-1.4c0.8-0.6,1.7-1.7,2.4-3.1c0.1-0.3,0.2-0.5,0.2-0.7
		c0-0.2-0.1-0.4-0.2-0.7l-5.7-14.3H189.4z"/>
	<path class="st1" d="M210.5,106.4V93.1h-2.2v-2.1h2.2v-0.7c0-2.2,0.5-4.2,1.8-5.4c1.1-1,2.5-1.4,3.8-1.4c1,0,1.9,0.2,2.4,0.4
		l-0.4,2.2c-0.4-0.2-1-0.4-1.8-0.4c-2.4,0-3,2.1-3,4.5v0.8h3.7v2.1h-3.7v13.3H210.5z"/>
	<path class="st1" d="M233.2,98.6c0,5.7-4,8.2-7.7,8.2c-4.2,0-7.4-3.1-7.4-8c0-5.2,3.4-8.2,7.7-8.2
		C230.2,90.6,233.2,93.8,233.2,98.6z M220.9,98.7c0,3.4,2,6,4.7,6c2.7,0,4.7-2.5,4.7-6c0-2.6-1.3-6-4.6-6
		C222.3,92.7,220.9,95.8,220.9,98.7z"/>
	<path class="st1" d="M236.7,95.8c0-1.8,0-3.4-0.1-4.8h2.5l0.1,3h0.1c0.7-2.1,2.4-3.4,4.3-3.4c0.3,0,0.5,0,0.8,0.1v2.7
		c-0.3-0.1-0.6-0.1-1-0.1c-2,0-3.4,1.5-3.8,3.6c-0.1,0.4-0.1,0.8-0.1,1.3v8.3h-2.8V95.8z"/>
	<path class="st1" d="M247.3,95.1c0-1.6,0-2.9-0.1-4.2h2.5l0.1,2.5h0.1c0.9-1.5,2.3-2.8,4.9-2.8c2.1,0,3.7,1.3,4.4,3.1h0.1
		c0.5-0.9,1.1-1.5,1.7-2c0.9-0.7,2-1.1,3.4-1.1c2,0,5.1,1.3,5.1,6.7v9.1h-2.8v-8.8c0-3-1.1-4.8-3.4-4.8c-1.6,0-2.8,1.2-3.3,2.6
		c-0.1,0.4-0.2,0.9-0.2,1.4v9.6H257v-9.3c0-2.5-1.1-4.3-3.2-4.3c-1.8,0-3,1.4-3.5,2.8c-0.2,0.4-0.2,0.9-0.2,1.4v9.3h-2.8V95.1z"/>
	<path class="st1" d="M273.6,103.6c0.8,0.5,2.3,1.1,3.7,1.1c2,0,3-1,3-2.3c0-1.3-0.8-2.1-2.9-2.8c-2.8-1-4.1-2.5-4.1-4.4
		c0-2.5,2-4.5,5.3-4.5c1.6,0,2.9,0.4,3.8,1l-0.7,2c-0.6-0.4-1.7-0.9-3.2-0.9c-1.7,0-2.6,1-2.6,2.1c0,1.3,0.9,1.9,2.9,2.6
		c2.7,1,4.1,2.4,4.1,4.7c0,2.7-2.1,4.6-5.8,4.6c-1.7,0-3.3-0.4-4.4-1.1L273.6,103.6z"/>
</g>
</svg>
