<svg id="svg2" xmlns="http://www.w3.org/2000/svg" viewBox="0 0 365.09 77.79"><defs><style>.cls-1{fill:#21759a;}.cls-2{fill:#464646;}</style></defs><title>wordpress-logo</title><g id="layer1"><g id="g4207"><path id="path4187" class="cls-1" d="M185,42.16c2.91-3.39.86-7.86-3.89-8.49l-2.66-.35V44.23l2.64-.29A5.34,5.34,0,0,0,185,42.16Zm32,11.71c3.06-1.58,4.48-4.66,4.48-9.75,0-3.85-1.78-7.69-4.2-9.06a16.72,16.72,0,0,0-5.17-1.34l-3.49-.39V43.71c0,9.29.1,10.45,1,11,1.15.7,5.37.23,7.4-.82Zm-49.74,3.07c0-.86.38-1.11,1.65-1.11,3,0,3.38-1.36,3.38-11.59,0-8.35-.09-9.18-1.11-10.21a4.15,4.15,0,0,0-2.52-1.12c-1,0-1.4-.29-1.4-1.16,0-1.15.19-1.16,9.36-1,8.43.18,9.6.32,11.73,1.45a7.36,7.36,0,0,1,.52,12.93,7.61,7.61,0,0,1-2.93,1.17c-1.36,0,6,7.46,8.49,8.66s6,1.1,7-.08c.58-.7.76-3.23.76-10.66,0-9-.08-9.8-1.08-10.54a5.33,5.33,0,0,0-2.66-.79c-1.19,0-1.57-.26-1.57-1.12,0-1.07.38-1.11,8.83-1.11,9.93,0,14.13.76,17.69,3.23,6.9,4.78,6.68,16.39-.4,21.17-3.82,2.58-6.75,3-21.53,3H188.2l-4.42-5.59c-2.42-3.07-4.63-5.59-4.89-5.59s-.47,1.46-.47,3.23c0,4,1.05,5.72,3.39,5.72,1.27,0,1.64.25,1.64,1.11,0,1.07-.37,1.12-8.1,1.12s-8.11-.05-8.11-1.12Zm-11.87-2.58c5.47-4,5.46-16,0-19.88a10.91,10.91,0,0,0-9.91-.56c-2.92,1.6-5,6-5,10.41s2.14,9,5,10.51c2.56,1.38,7.72,1.13,9.92-.48Zm-9.64,4.33c-5-1.33-10.11-5.84-11.36-10-2.14-7.14,1.44-14.3,8.81-17.63,3.65-1.65,9.92-1.58,13.85.15,3.22,1.42,7.06,5.2,8.3,8.16A16.43,16.43,0,0,1,165.08,50c-1.23,2.7-5.36,6.61-8.28,7.84-2.47,1-8.64,1.54-11.07.89ZM98,44.79c-6-18.63-6.58-19.7-10.35-19.7-1.06,0-1.43-.29-1.43-1.12,0-1.07.37-1.12,8.94-1.12s8.94,0,8.94,1.12c0,.86-.37,1.12-1.64,1.12-1.49,0-3.39,1.19-3.39,2.13,0,.21,1.3,4.48,2.9,9.49,2.18,6.85,3,8.87,3.42,8.17.28-.51,2.08-5.61,4-11.34,4.69-14.06,4.55-14.06,9.24.33,2,6.08,3.75,11.24,3.92,11.47s1.69-3.74,3.36-8.82c3.39-10.27,3.37-11-.2-11.33-1.59-.13-2-.41-2-1.25,0-1,.45-1.09,7.83-1.09s7.82,0,7.82,1.12c0,.91-.37,1.12-2,1.12-3.71,0-4.51,1.44-10.25,18.61-4,12-5.4,15.5-6.06,15.37s-2-3.76-4.46-11.35c-2-6.15-3.77-11.36-4-11.59s-2.14,4.87-4.27,11.32c-2.88,8.7-4.11,11.73-4.77,11.73s-2-3.59-5.52-14.39Z" transform="translate(0 0.75)"/><path id="path4179" class="cls-2" d="M277,43.3c4.15-1.73,3.73-8-.61-9.23-4.64-1.29-4.66-1.27-4.66,4.71v5.31h1.7A11,11,0,0,0,277,43.3ZM260.58,56.94c0-.86.37-1.11,1.63-1.11a4,4,0,0,0,2.47-.84c1.14-1.13,1.7-7.08,1.34-14.1-.33-6.47-1.06-8-3.85-8-1.25,0-1.59-.25-1.59-1.17,0-1.16.15-1.17,9.64-1,10.15.22,11,.42,13.94,3.13,3.87,3.6,1.77,11-3.46,12.14l-1.67.37,2.65,3.07c5,5.79,10.12,8,12.12,5.1.7-1,.87-3,.87-10.34,0-8.35-.09-9.18-1.12-10.21A4.13,4.13,0,0,0,291,32.91c-1,0-1.4-.3-1.4-1.12,0-1.08.37-1.11,12-1.11h12l.39,3.94a14.7,14.7,0,0,1,.08,4.26c-.69.7-1.9-.38-2.22-2-.44-2.2-1.43-2.67-6.66-3.16l-4.33-.4v9.09l2.37-.36c2.62-.38,3.77-1.43,3.77-3.4,0-.91.33-1.29,1.12-1.29,1.06,0,1.12.38,1.12,6.43s-.06,6.43-1.12,6.43c-.86,0-1.12-.38-1.12-1.65,0-2-1.74-3.38-4.31-3.38h-1.83v3.57c0,5,1,6.22,5.4,6.18,5-.05,6.16-.52,7-2.77.47-1.31,1.06-1.95,1.78-1.95.91,0,1,.27.73,1.74a23.41,23.41,0,0,0-.35,3.92v2.16l-16.91,0-16.9,0-4.38-5.56c-2.41-3.06-4.61-5.57-4.89-5.57-1.14,0,0,7.65,1.24,8.45a5.51,5.51,0,0,0,2.3.49c1.16,0,1.53.28,1.53,1.12,0,1.07-.37,1.12-8.38,1.12s-8.38-.05-8.38-1.12ZM249.31,38.83c4.2-2.18,4.2-9.66,0-11.83a11.6,11.6,0,0,0-4.35-.8h-2.83V39.62H245a11.82,11.82,0,0,0,4.35-.79Zm-20,18.11c0-.87.37-1.11,1.7-1.11a4.49,4.49,0,0,0,3-1.32c1.12-1.12,1.37-2.1,1.73-6.84.22-3.05.26-8.67.08-12.49-.38-8.14-1.08-9.7-4.49-10-1.61-.13-2-.4-2-1.3,0-1.09.29-1.12,11.32-.94,11.28.18,11.32.19,14,1.77,4.6,2.7,6,7.81,3.58,12.68-1.87,3.71-5.8,5.57-11.75,5.57H242l.19,5.36c.17,4.84.32,5.46,1.51,6.43a5.47,5.47,0,0,0,2.94,1.07c1.24,0,1.61.25,1.61,1.11,0,1.08-.37,1.12-9.5,1.12s-9.5,0-9.5-1.12ZM345,53.31c0-5.41.08-5.87,1.07-5.87.74,0,1.19.53,1.45,1.69A10.38,10.38,0,0,0,352.27,55c3.51,1.81,7.79.46,7.79-2.47,0-2-1.54-3.37-6.71-5.94-4.61-2.28-6.41-3.7-7.6-6a7.38,7.38,0,0,1,3-9.56c3.17-1.61,5.55-1.63,10.64-.08.94.29,1.26.16,1.26-.52s.46-.9,1.11-.9c1,0,1.12.37,1.12,5,0,4.47-.11,5-1,5-.64,0-1.26-.7-1.71-1.93-1.5-4.17-6.49-6.19-9-3.66-2.35,2.35-1.07,3.95,5.67,7.12,6.18,2.89,8.3,5.24,8.3,9.18,0,5.08-3,8.1-8.59,8.68a9.39,9.39,0,0,1-5.63-.88c-2.75-1.21-3.67-1.15-3.67.24,0,.45-.5.81-1.11.81-1,0-1.12-.37-1.12-5.87Zm-24.59,0c0-5.49.07-5.87,1.12-5.87a1,1,0,0,1,1.12,1c0,1.79,2.48,5.32,4.46,6.37,3.92,2.09,8.39.76,8.39-2.5,0-1.79-1.67-3.15-7.55-6.17s-7.54-4.94-7.54-8.84a6.74,6.74,0,0,1,4.08-6.41,12.52,12.52,0,0,1,9.17-.08c1.7.85,1.81.84,2.13-.17a1.62,1.62,0,0,1,1.42-1.06c1,0,1.08.43,1.08,5s-.09,5-1.07,5c-.73,0-1.28-.62-1.72-1.94-.85-2.57-3.51-4.77-5.79-4.77-4,0-5.68,3.4-2.74,5.48a68.33,68.33,0,0,0,6,3.34c5.84,2.93,7.11,4.32,7.41,8.08s-1.25,6.28-4.88,8.11a10.41,10.41,0,0,1-9.43.13c-2.52-1.14-3.44-1.06-3.44.32,0,.45-.5.81-1.11.81-1.05,0-1.12-.37-1.12-5.87Z" transform="translate(0 0.75)"/><path id="path4165" class="cls-2" d="M24.56,41c-3.31-9.83-6-18-6-18.27s.86-.47,2-.57c2.34-.19,3.44-1,2.67-1.9-.42-.51-1.19-.55-6.34-.33a34.11,34.11,0,0,1-5.87,0c0-.62,2.31-3.46,4.73-5.84A33.09,33.09,0,0,1,39,4.63,31.93,31.93,0,0,1,50.09,6.5a36.48,36.48,0,0,1,10.57,5.95l1,.94-1.58.46a6.11,6.11,0,0,0-4.15,4.23c-.51,2.05.12,4.11,2.48,8.09,4.2,7.08,4.23,9.89.21,23.12-1.49,4.92-2.79,9-2.89,9.12s-.26,0-.36-.32c-.55-1.52-12-35.62-12-35.74a4.68,4.68,0,0,1,1.53-.17c2.48-.05,3.32-.41,3.32-1.41v-.88l-9.77,0c-7.68,0-9.82.08-10,.45-.36.95.25,1.51,1.9,1.73l2.18.28c.3,0,1.53,2.85,3.14,7.23l2.64,7.16L34.62,47.79c-2,6.08-3.76,11.06-3.86,11.05s-2.89-8-6.2-17.86Zm31,26C55.53,67,58,59.89,61,51.3,67.7,32,68.15,30.39,68.17,25.47c0-3.27.08-3.66.52-3.07.84,1.16,2.55,6,3.15,8.87A44.69,44.69,0,0,1,72,44,34.27,34.27,0,0,1,61.94,62.61C59.2,65.15,55.53,67.67,55.53,67Zm-34.47-.55A33.87,33.87,0,0,1,6,44,42.24,42.24,0,0,1,6.3,31c.65-3.14,2-6.89,2.37-6.53.15.15,16,43.37,16,43.64C24.65,68.51,23.36,67.93,21.06,66.46Zm13.48,4.9c-3.72-.47-5.32-1-5.09-1.57.11-.28,2.32-6.7,4.92-14.25s4.85-14,5-14.29.38-.3.7.54C41.69,46,50.15,69.34,50.15,69.58c0,.74-8.22,2.26-11.67,2.15C37.69,71.71,35.91,71.54,34.54,71.36Zm10.76,3.1C64,71.2,77.76,53.16,75.68,34.61a35.32,35.32,0,0,0-11.15-22.8A35.26,35.26,0,0,0,39,1.34a36.6,36.6,0,0,0-19.1,5.3A44.5,44.5,0,0,0,8.31,17.85C-.38,31.38.19,47.63,9.79,60.41a36.88,36.88,0,0,0,35.51,14ZM32.07,76.61A39.14,39.14,0,0,1,10.78,11.18,38.51,38.51,0,0,1,31.45-.2a52.47,52.47,0,0,1,15.12,0,39.08,39.08,0,0,1,8.76,73.82A35,35,0,0,1,40.09,77a38.83,38.83,0,0,1-8-.4Z" transform="translate(0 0.75)"/></g></g></svg>